/* XPM */
static char * mydict_xpm[] = {
"48 48 147 2",
"  	c None",
". 	c #FFFFFF",
"+ 	c #FEFEFE",
"@ 	c #F8F8F8",
"# 	c #E1E1E1",
"$ 	c #0F0F0F",
"% 	c #F0F0F0",
"& 	c #1F1F1F",
"* 	c #070707",
"= 	c #E9E9E9",
"- 	c #252525",
"; 	c #EAEAEA",
"> 	c #2D2D2D",
", 	c #161616",
"' 	c #000000",
") 	c #262626",
"! 	c #343434",
"~ 	c #F9F9F9",
"{ 	c #1E1E1E",
"] 	c #DADADA",
"^ 	c #D9D9D9",
"/ 	c #D3D3D3",
"( 	c #D2D2D2",
"_ 	c #2C2C2C",
": 	c #F7F7F7",
"< 	c #333333",
"[ 	c #EFEFEF",
"} 	c #2E2E2E",
"| 	c #F1F1F1",
"1 	c #E8E8E8",
"2 	c #E0E0E0",
"3 	c #CBCBCB",
"4 	c #E2E2E2",
"5 	c #171717",
"6 	c #010101",
"7 	c #151515",
"8 	c #D1D1D1",
"9 	c #CACACA",
"0 	c #242424",
"a 	c #FDFDFD",
"b 	c #F6F6F6",
"c 	c #EEEEEE",
"d 	c #FBFBFB",
"e 	c #F3F3F3",
"f 	c #F2F2F2",
"g 	c #F4F4F4",
"h 	c #FCFCFC",
"i 	c #C7C7C7",
"j 	c #232323",
"k 	c #C5C5C5",
"l 	c #828282",
"m 	c #272727",
"n 	c #7F7F7F",
"o 	c #B2B2B2",
"p 	c #595959",
"q 	c #6B6B6B",
"r 	c #474747",
"s 	c #868686",
"t 	c #EBEBEB",
"u 	c #454545",
"v 	c #141414",
"w 	c #A3A3A3",
"x 	c #919191",
"y 	c #3C3C3C",
"z 	c #191919",
"A 	c #E5E5E5",
"B 	c #F5F5F5",
"C 	c #9D9D9D",
"D 	c #1B1B1B",
"E 	c #9E9E9E",
"F 	c #202020",
"G 	c #797979",
"H 	c #787878",
"I 	c #EDEDED",
"J 	c #7E7E7E",
"K 	c #686868",
"L 	c #616161",
"M 	c #3D3D3D",
"N 	c #4B4B4B",
"O 	c #E4E4E4",
"P 	c #7B7B7B",
"Q 	c #515151",
"R 	c #1D1D1D",
"S 	c #E7E7E7",
"T 	c #C9C9C9",
"U 	c #292929",
"V 	c #545454",
"W 	c #8A8A8A",
"X 	c #5D5D5D",
"Y 	c #B0B0B0",
"Z 	c #383838",
"` 	c #626262",
" .	c #989898",
"..	c #717171",
"+.	c #B8B8B8",
"@.	c #494949",
"#.	c #C4C4C4",
"$.	c #696969",
"%.	c #B1B1B1",
"&.	c #8D8D8D",
"*.	c #747474",
"=.	c #6D6D6D",
"-.	c #A2A2A2",
";.	c #5F5F5F",
">.	c #5A5A5A",
",.	c #C6C6C6",
"'.	c #9F9F9F",
").	c #878787",
"!.	c #DEDEDE",
"~.	c #6F6F6F",
"{.	c #C3C3C3",
"].	c #585858",
"^.	c #BBBBBB",
"/.	c #969696",
"(.	c #6C6C6C",
"_.	c #ECECEC",
":.	c #D6D6D6",
"<.	c #979797",
"[.	c #A1A1A1",
"}.	c #5C5C5C",
"|.	c #6E6E6E",
"1.	c #DDDDDD",
"2.	c #4D4D4D",
"3.	c #DFDFDF",
"4.	c #4A4A4A",
"5.	c #BFBFBF",
"6.	c #212121",
"7.	c #7A7A7A",
"8.	c #DCDCDC",
"9.	c #888888",
"0.	c #C1C1C1",
"a.	c #ADADAD",
"b.	c #9A9A9A",
"c.	c #535353",
"d.	c #282828",
"e.	c #8F8F8F",
"f.	c #3B3B3B",
"g.	c #525252",
"h.	c #D4D4D4",
"i.	c #AAAAAA",
"j.	c #2A2A2A",
"k.	c #676767",
"l.	c #CFCFCF",
"m.	c #4C4C4C",
"n.	c #707070",
"o.	c #E3E3E3",
"p.	c #DBDBDB",
". . . . . . . . . + . . . . . . . . . . . . . . . . . . . . . . . . . . . . . . . . . . . @ # $ ",
". . . . . . . . . . . + . . . @ @ @ . . . . . @ @ @ @ @ @ . . . . . . . . . . . . . . . . % & * ",
". . . . . . . . . . . . . . @ = - # = = ; = = # - # # > % @ @ @ . . . . . . + . . . . . . = , ' ",
". . . . . . . . . . . . . @ % ) - - > > > > > - - - - - # = ! ~ . . . . . . . . . . . . . = , ' ",
". . . . . . . . . . . . @ = { ] # = = = = ; # ^ / ( ( ] - - = % . . . . . . . . . + . . . = , ' ",
". . . . . . . . . . . @ % - - _ @ + . . . . : < _ > > > = # > = @ @ . . . . . . . . . + . = , ' ",
". . . . . . . . . . @ = { ( ] = : . . . . . % # ( / ( # % % > # ! ~ . . . . + . . . . . . = , ' ",
". . . . . . . . . @ [ - - - ! @ . . . . . . @ ! > > } < @ % = { # = @ . . . . . . . . . . = , ' ",
". . . . . . . . . % - ( ( ( ] = @ . . @ % = # ] ( ( ] = | = { ] - ! @ . . . . . . . . . . = , ' ",
". . . . . . . . @ = - { - - > > % @ @ % > - ) - > > > % % > { , ] = @ . . . . . . . . . . = , ' ",
". . . . . . . . % > # # ) # = # > % % > # # - # = = # > = % ] { { % @ . . . . . . . . . . = , ' ",
". . . . . . . . % > = % @ @ @ = > % % > = | @ ~ . @ 1 > % @ # { ] > % @ . . . . + . . . . = , ' ",
". . . . . . . . @ % > = = = ; > % @ @ % _ = = = = ; > = = # { - # = - = % @ . . . . . . . = , ' ",
". . . . . . . . . @ = - - - - = @ . . @ = - - > > > = = _ { , ( # > 2 { { # | @ . . . . . = , ' ",
". . . . . . . . . . = { 3 ( - % . . . . % - ( ( ( ] 4 > = ] { { } % # , * $ { = @ . . . . = , ' ",
". . . . . . . . . . ; - , - = @ . . . . % = & ) - } > % @ = - ] % @ = 5 ' ' * { % . + . . = , ' ",
". . . . . . . . . . = - 3 ) = . . . . . % > ] { ] 2 % @ . = > = . . = , 6 ' ' , = . . . . = , ' ",
". . . . . . . . . @ 1 - ] - = : . . . @ = > = % > % @ . . = > = . . = , ' ' ' , = . . . . = , ' ",
". . . . . . . . . % > ] - # > = = = = ; > = % % = > % . . % > = @ + = , ' ' ' , = . . . . = , ' ",
". . . . . . . . . = > ( > 4 % } > > > } = = > % # > = . . @ = > % . = , ' ' ' , = . . . . = , ' ",
". . . . . . . . . = > ( > = @ = ] ( ( ] 4 > = ! = > = : . . = _ = . = , ' ' ' 5 = . . . . = , ' ",
". . . . . . . . . = > ( > = . @ ! > > > > % % ~ % 1 > % . . = > = . = , ' ' ' , = . . . . = , ' ",
". . . . . . . . . = > ( > = . @ % = ; = | @ . . . = > = . . % > = @ = , ' ' ' , = . . . . = , ' ",
". . . . . . . . . = > ( > 1 . . . . + . . . . . . = > = . . @ = _ % = , ' ' ' , = . . . . = , ' ",
". . . . . . . . . = > ] ! % . . + . . . . . . . . = > = . . . = > = % { * ' ' , = . . . . = , ' ",
". . . . . . . . . = > # % % @ . . . . . . . . . . = > = . . . = > = @ 2 $ ' ' 7 = . . . . = , ' ",
". . . . . . . . . = > ; % ! % . . . . . . . . . . % > = @ . . = > = . = , ' ' , = . . . . = , ' ",
". . . . . . . . . = > = = > # @ @ . . . . . . . @ % # > % . . = > = . = , ' ' , = . . . . = , ' ",
". . . . . . . . . = > = ; > ] ! % . . . . . @ @ = ! ] > = : @ 4 > = . = , ' ' , = . . . . = , ' ",
". . . . . . . . @ = - = = ! ] > = . . . . . % ! ^ > ( > = % ! ] > = . = , ' ' , = . . . . = , ' ",
". . . . . . . . [ > ] > = @ # > = . . . . . = > ( > ] ! % = - ( > % . = , ' ' , = . . . . = , ' ",
". . . . . . . . = > 8 } = . % ! % . . . . . = > ] ! = @ @ = - { % @ . = , ' ' 7 = . . . . = , ' ",
". . . . . . . . = - 9 { ] = # # # 1 ; = = = ] { ( # # ; = ] , / # = = ] $ ' ' , = . . . . = , ' ",
". . . . . . . . % > { - - > > > > > > > _ > - - - > > > > 0 - - > > > - { , , - % . . . . = , ' ",
". . . . . . . + : % = = = = = = = = = = = = = = = = = = = = = = = = = = = = = % @ . . . . = 7 ' ",
". . . . . . . a b c % ~ + : [ c b a . . . . d e [ | e f e ~ @ g g d . . . . . h a a . . . = , ' ",
". . . . . . . a i - - c @ ^ j - k a . . . . ~ l m n o p q ^ [ r s @ . + . . d g 3 @ . . . = , ' ",
". . . . . . . + t u v w c x y z A g % f B : c C D E c A F G 2 H w % b | [ g I J K % a . . = , ' ",
". . . . . . . . [ L M N O P Q R S T U V = W l E { w @ c X < Y Z ` S  .V q ..+.& @.#.a . . = , ' ",
". . . . . . . . % $.J R %.&.V { S % *.& ] =.A E { -.@ % ;.{ / R >.,.j '.8 ).!.D >.c a . . = , ' ",
". . . . . . . . % ~.{.R r 9 ].{ = @ ^.& /.(._.w R w : I X ! :.{ ].<.F [.% @ 4 R }.% . . . = , ' ",
". . . . . . . a c |.1.2.2.3.>.D S h I 4.D 5.[ [.D E c ( 6.7.8.D ].k F 9.1 3 8 R >.; a . . = , ' ",
". . . . . . . a T ;.0.a.b.:.c.d.k a B e.f.t @ l m n o |.l c 0.d.g.h.i.j.=.[.I k.d.%.a . . = 5 ' ",
". . . . . . . a : b B @ @ B | % b : [ l.l e d e [ | e e b ~ b % | b g | [ : : e % B a . . ; , ' ",
". . . . . . . . . . . . . . + . + @ m.n.2 ~ . . . . . . . . . . . . . . . . . . . . . . . = , ' ",
"@ % = 1 = = = = = = = = = = = = = # 1.8.o.1 = = = = = = = = = = = = = = = = = = = = = = = ] $ ' ",
"@ % = = = = = = = = = = = = = = 1 4 1.8.o.1 = = = ; = = = = 1 = = = = = = = ; = = = 1 = = p.$ ' ",
"@ % = = = = = = = = = = = = = = = 4 1.8.o.1 = = = = = = = = = = = = = = = = = = = = = = = ] $ ' "};
