G75*
G70*
%OFA0B0*%
%FSLAX24Y24*%
%IPPOS*%
%LPD*%
%AMOC8*
5,1,8,0,0,1.08239X$1,22.5*
%
%ADD10C,0.0070*%
%ADD11C,0.0000*%
%ADD12C,0.0040*%
%ADD13R,0.0059X0.0118*%
%ADD14R,0.0118X0.0118*%
%ADD15C,0.0050*%
D10*
X003790Y000141D02*
X003790Y021141D01*
X035790Y021141D01*
X035790Y000141D01*
X003790Y000141D01*
D11*
X004810Y003041D02*
X004812Y003091D01*
X004818Y003141D01*
X004828Y003190D01*
X004842Y003238D01*
X004859Y003285D01*
X004880Y003330D01*
X004905Y003374D01*
X004933Y003415D01*
X004965Y003454D01*
X004999Y003491D01*
X005036Y003525D01*
X005076Y003555D01*
X005118Y003582D01*
X005162Y003606D01*
X005208Y003627D01*
X005255Y003643D01*
X005303Y003656D01*
X005353Y003665D01*
X005402Y003670D01*
X005453Y003671D01*
X005503Y003668D01*
X005552Y003661D01*
X005601Y003650D01*
X005649Y003635D01*
X005695Y003617D01*
X005740Y003595D01*
X005783Y003569D01*
X005824Y003540D01*
X005863Y003508D01*
X005899Y003473D01*
X005931Y003435D01*
X005961Y003395D01*
X005988Y003352D01*
X006011Y003308D01*
X006030Y003262D01*
X006046Y003214D01*
X006058Y003165D01*
X006066Y003116D01*
X006070Y003066D01*
X006070Y003016D01*
X006066Y002966D01*
X006058Y002917D01*
X006046Y002868D01*
X006030Y002820D01*
X006011Y002774D01*
X005988Y002730D01*
X005961Y002687D01*
X005931Y002647D01*
X005899Y002609D01*
X005863Y002574D01*
X005824Y002542D01*
X005783Y002513D01*
X005740Y002487D01*
X005695Y002465D01*
X005649Y002447D01*
X005601Y002432D01*
X005552Y002421D01*
X005503Y002414D01*
X005453Y002411D01*
X005402Y002412D01*
X005353Y002417D01*
X005303Y002426D01*
X005255Y002439D01*
X005208Y002455D01*
X005162Y002476D01*
X005118Y002500D01*
X005076Y002527D01*
X005036Y002557D01*
X004999Y002591D01*
X004965Y002628D01*
X004933Y002667D01*
X004905Y002708D01*
X004880Y002752D01*
X004859Y002797D01*
X004842Y002844D01*
X004828Y002892D01*
X004818Y002941D01*
X004812Y002991D01*
X004810Y003041D01*
X004810Y013241D02*
X004812Y013291D01*
X004818Y013341D01*
X004828Y013390D01*
X004842Y013438D01*
X004859Y013485D01*
X004880Y013530D01*
X004905Y013574D01*
X004933Y013615D01*
X004965Y013654D01*
X004999Y013691D01*
X005036Y013725D01*
X005076Y013755D01*
X005118Y013782D01*
X005162Y013806D01*
X005208Y013827D01*
X005255Y013843D01*
X005303Y013856D01*
X005353Y013865D01*
X005402Y013870D01*
X005453Y013871D01*
X005503Y013868D01*
X005552Y013861D01*
X005601Y013850D01*
X005649Y013835D01*
X005695Y013817D01*
X005740Y013795D01*
X005783Y013769D01*
X005824Y013740D01*
X005863Y013708D01*
X005899Y013673D01*
X005931Y013635D01*
X005961Y013595D01*
X005988Y013552D01*
X006011Y013508D01*
X006030Y013462D01*
X006046Y013414D01*
X006058Y013365D01*
X006066Y013316D01*
X006070Y013266D01*
X006070Y013216D01*
X006066Y013166D01*
X006058Y013117D01*
X006046Y013068D01*
X006030Y013020D01*
X006011Y012974D01*
X005988Y012930D01*
X005961Y012887D01*
X005931Y012847D01*
X005899Y012809D01*
X005863Y012774D01*
X005824Y012742D01*
X005783Y012713D01*
X005740Y012687D01*
X005695Y012665D01*
X005649Y012647D01*
X005601Y012632D01*
X005552Y012621D01*
X005503Y012614D01*
X005453Y012611D01*
X005402Y012612D01*
X005353Y012617D01*
X005303Y012626D01*
X005255Y012639D01*
X005208Y012655D01*
X005162Y012676D01*
X005118Y012700D01*
X005076Y012727D01*
X005036Y012757D01*
X004999Y012791D01*
X004965Y012828D01*
X004933Y012867D01*
X004905Y012908D01*
X004880Y012952D01*
X004859Y012997D01*
X004842Y013044D01*
X004828Y013092D01*
X004818Y013141D01*
X004812Y013191D01*
X004810Y013241D01*
X009160Y020141D02*
X009162Y020191D01*
X009168Y020241D01*
X009178Y020290D01*
X009192Y020338D01*
X009209Y020385D01*
X009230Y020430D01*
X009255Y020474D01*
X009283Y020515D01*
X009315Y020554D01*
X009349Y020591D01*
X009386Y020625D01*
X009426Y020655D01*
X009468Y020682D01*
X009512Y020706D01*
X009558Y020727D01*
X009605Y020743D01*
X009653Y020756D01*
X009703Y020765D01*
X009752Y020770D01*
X009803Y020771D01*
X009853Y020768D01*
X009902Y020761D01*
X009951Y020750D01*
X009999Y020735D01*
X010045Y020717D01*
X010090Y020695D01*
X010133Y020669D01*
X010174Y020640D01*
X010213Y020608D01*
X010249Y020573D01*
X010281Y020535D01*
X010311Y020495D01*
X010338Y020452D01*
X010361Y020408D01*
X010380Y020362D01*
X010396Y020314D01*
X010408Y020265D01*
X010416Y020216D01*
X010420Y020166D01*
X010420Y020116D01*
X010416Y020066D01*
X010408Y020017D01*
X010396Y019968D01*
X010380Y019920D01*
X010361Y019874D01*
X010338Y019830D01*
X010311Y019787D01*
X010281Y019747D01*
X010249Y019709D01*
X010213Y019674D01*
X010174Y019642D01*
X010133Y019613D01*
X010090Y019587D01*
X010045Y019565D01*
X009999Y019547D01*
X009951Y019532D01*
X009902Y019521D01*
X009853Y019514D01*
X009803Y019511D01*
X009752Y019512D01*
X009703Y019517D01*
X009653Y019526D01*
X009605Y019539D01*
X009558Y019555D01*
X009512Y019576D01*
X009468Y019600D01*
X009426Y019627D01*
X009386Y019657D01*
X009349Y019691D01*
X009315Y019728D01*
X009283Y019767D01*
X009255Y019808D01*
X009230Y019852D01*
X009209Y019897D01*
X009192Y019944D01*
X009178Y019992D01*
X009168Y020041D01*
X009162Y020091D01*
X009160Y020141D01*
X034160Y014141D02*
X034162Y014191D01*
X034168Y014241D01*
X034178Y014290D01*
X034192Y014338D01*
X034209Y014385D01*
X034230Y014430D01*
X034255Y014474D01*
X034283Y014515D01*
X034315Y014554D01*
X034349Y014591D01*
X034386Y014625D01*
X034426Y014655D01*
X034468Y014682D01*
X034512Y014706D01*
X034558Y014727D01*
X034605Y014743D01*
X034653Y014756D01*
X034703Y014765D01*
X034752Y014770D01*
X034803Y014771D01*
X034853Y014768D01*
X034902Y014761D01*
X034951Y014750D01*
X034999Y014735D01*
X035045Y014717D01*
X035090Y014695D01*
X035133Y014669D01*
X035174Y014640D01*
X035213Y014608D01*
X035249Y014573D01*
X035281Y014535D01*
X035311Y014495D01*
X035338Y014452D01*
X035361Y014408D01*
X035380Y014362D01*
X035396Y014314D01*
X035408Y014265D01*
X035416Y014216D01*
X035420Y014166D01*
X035420Y014116D01*
X035416Y014066D01*
X035408Y014017D01*
X035396Y013968D01*
X035380Y013920D01*
X035361Y013874D01*
X035338Y013830D01*
X035311Y013787D01*
X035281Y013747D01*
X035249Y013709D01*
X035213Y013674D01*
X035174Y013642D01*
X035133Y013613D01*
X035090Y013587D01*
X035045Y013565D01*
X034999Y013547D01*
X034951Y013532D01*
X034902Y013521D01*
X034853Y013514D01*
X034803Y013511D01*
X034752Y013512D01*
X034703Y013517D01*
X034653Y013526D01*
X034605Y013539D01*
X034558Y013555D01*
X034512Y013576D01*
X034468Y013600D01*
X034426Y013627D01*
X034386Y013657D01*
X034349Y013691D01*
X034315Y013728D01*
X034283Y013767D01*
X034255Y013808D01*
X034230Y013852D01*
X034209Y013897D01*
X034192Y013944D01*
X034178Y013992D01*
X034168Y014041D01*
X034162Y014091D01*
X034160Y014141D01*
X034160Y003141D02*
X034162Y003191D01*
X034168Y003241D01*
X034178Y003290D01*
X034192Y003338D01*
X034209Y003385D01*
X034230Y003430D01*
X034255Y003474D01*
X034283Y003515D01*
X034315Y003554D01*
X034349Y003591D01*
X034386Y003625D01*
X034426Y003655D01*
X034468Y003682D01*
X034512Y003706D01*
X034558Y003727D01*
X034605Y003743D01*
X034653Y003756D01*
X034703Y003765D01*
X034752Y003770D01*
X034803Y003771D01*
X034853Y003768D01*
X034902Y003761D01*
X034951Y003750D01*
X034999Y003735D01*
X035045Y003717D01*
X035090Y003695D01*
X035133Y003669D01*
X035174Y003640D01*
X035213Y003608D01*
X035249Y003573D01*
X035281Y003535D01*
X035311Y003495D01*
X035338Y003452D01*
X035361Y003408D01*
X035380Y003362D01*
X035396Y003314D01*
X035408Y003265D01*
X035416Y003216D01*
X035420Y003166D01*
X035420Y003116D01*
X035416Y003066D01*
X035408Y003017D01*
X035396Y002968D01*
X035380Y002920D01*
X035361Y002874D01*
X035338Y002830D01*
X035311Y002787D01*
X035281Y002747D01*
X035249Y002709D01*
X035213Y002674D01*
X035174Y002642D01*
X035133Y002613D01*
X035090Y002587D01*
X035045Y002565D01*
X034999Y002547D01*
X034951Y002532D01*
X034902Y002521D01*
X034853Y002514D01*
X034803Y002511D01*
X034752Y002512D01*
X034703Y002517D01*
X034653Y002526D01*
X034605Y002539D01*
X034558Y002555D01*
X034512Y002576D01*
X034468Y002600D01*
X034426Y002627D01*
X034386Y002657D01*
X034349Y002691D01*
X034315Y002728D01*
X034283Y002767D01*
X034255Y002808D01*
X034230Y002852D01*
X034209Y002897D01*
X034192Y002944D01*
X034178Y002992D01*
X034168Y003041D01*
X034162Y003091D01*
X034160Y003141D01*
D12*
X030195Y006888D02*
X030118Y006811D01*
X029811Y006811D01*
X029735Y006888D01*
X029735Y007041D01*
X029811Y007118D01*
X029965Y007271D02*
X029965Y007578D01*
X029811Y007732D02*
X030118Y007732D01*
X030195Y007809D01*
X030195Y007962D01*
X030118Y008039D01*
X029811Y007732D01*
X029735Y007809D01*
X029735Y007962D01*
X029811Y008039D01*
X030118Y008039D01*
X030195Y007502D02*
X029735Y007502D01*
X029965Y007271D02*
X030195Y007502D01*
X030118Y007118D02*
X030195Y007041D01*
X030195Y006888D01*
X024051Y006120D02*
X024051Y005813D01*
X023974Y005736D01*
X023821Y005736D01*
X023744Y005813D01*
X023590Y005966D02*
X023284Y005966D01*
X023130Y006043D02*
X022977Y006196D01*
X022977Y005736D01*
X023130Y005736D02*
X022823Y005736D01*
X023360Y005736D02*
X023360Y006196D01*
X023590Y005966D01*
X023744Y006120D02*
X023821Y006196D01*
X023974Y006196D01*
X024051Y006120D01*
X023974Y008111D02*
X023821Y008111D01*
X023744Y008188D01*
X023590Y008341D02*
X023284Y008341D01*
X023130Y008495D02*
X023053Y008571D01*
X022900Y008571D01*
X022823Y008495D01*
X022823Y008418D01*
X023130Y008111D01*
X022823Y008111D01*
X023360Y008111D02*
X023360Y008571D01*
X023590Y008341D01*
X023744Y008495D02*
X023821Y008571D01*
X023974Y008571D01*
X024051Y008495D01*
X024051Y008188D01*
X023974Y008111D01*
X020695Y009888D02*
X020618Y009811D01*
X020311Y009811D01*
X020235Y009888D01*
X020235Y010041D01*
X020311Y010118D01*
X020311Y010271D02*
X020235Y010348D01*
X020235Y010502D01*
X020311Y010578D01*
X020388Y010578D01*
X020465Y010502D01*
X020465Y010425D01*
X020465Y010502D02*
X020541Y010578D01*
X020618Y010578D01*
X020695Y010502D01*
X020695Y010348D01*
X020618Y010271D01*
X020618Y010118D02*
X020695Y010041D01*
X020695Y009888D01*
X020618Y010732D02*
X020695Y010809D01*
X020695Y010962D01*
X020618Y011039D01*
X020541Y011039D01*
X020235Y010732D01*
X020235Y011039D01*
X018345Y012707D02*
X018268Y012630D01*
X017961Y012630D01*
X017885Y012707D01*
X017885Y012860D01*
X017961Y012937D01*
X017961Y013090D02*
X017885Y013167D01*
X017885Y013320D01*
X017961Y013397D01*
X018038Y013397D01*
X018115Y013320D01*
X018115Y013244D01*
X018115Y013320D02*
X018191Y013397D01*
X018268Y013397D01*
X018345Y013320D01*
X018345Y013167D01*
X018268Y013090D01*
X018268Y012937D02*
X018345Y012860D01*
X018345Y012707D01*
X018268Y013551D02*
X018345Y013627D01*
X018345Y013781D01*
X018268Y013858D01*
X018191Y013858D01*
X018115Y013781D01*
X018038Y013858D01*
X017961Y013858D01*
X017885Y013781D01*
X017885Y013627D01*
X017961Y013551D01*
X018115Y013704D02*
X018115Y013781D01*
X014195Y012885D02*
X014041Y012732D01*
X014041Y012578D02*
X013965Y012502D01*
X013888Y012578D01*
X013811Y012578D01*
X013735Y012502D01*
X013735Y012348D01*
X013811Y012271D01*
X013811Y012118D02*
X013735Y012041D01*
X013735Y011888D01*
X013811Y011811D01*
X014118Y011811D01*
X014195Y011888D01*
X014195Y012041D01*
X014118Y012118D01*
X014118Y012271D02*
X014195Y012348D01*
X014195Y012502D01*
X014118Y012578D01*
X014041Y012578D01*
X013965Y012502D02*
X013965Y012425D01*
X013735Y012732D02*
X013735Y013039D01*
X013735Y012885D02*
X014195Y012885D01*
X010820Y011712D02*
X010820Y011559D01*
X010743Y011482D01*
X010743Y011328D02*
X010820Y011252D01*
X010820Y011098D01*
X010743Y011021D01*
X010743Y010868D02*
X010820Y010791D01*
X010820Y010638D01*
X010743Y010561D01*
X010436Y010561D01*
X010360Y010638D01*
X010360Y010791D01*
X010436Y010868D01*
X010360Y011021D02*
X010666Y011328D01*
X010743Y011328D01*
X010436Y011482D02*
X010360Y011559D01*
X010360Y011712D01*
X010436Y011789D01*
X010513Y011789D01*
X010590Y011712D01*
X010590Y011635D01*
X010590Y011712D02*
X010666Y011789D01*
X010743Y011789D01*
X010820Y011712D01*
X010360Y011328D02*
X010360Y011021D01*
X012469Y008546D02*
X012622Y008546D01*
X012699Y008470D01*
X012852Y008470D02*
X012929Y008546D01*
X013083Y008546D01*
X013159Y008470D01*
X013313Y008470D02*
X013389Y008546D01*
X013543Y008546D01*
X013620Y008470D01*
X013620Y008163D01*
X013543Y008086D01*
X013389Y008086D01*
X013313Y008163D01*
X013159Y008086D02*
X012852Y008393D01*
X012852Y008470D01*
X012469Y008546D02*
X012392Y008470D01*
X012392Y008393D01*
X012699Y008086D01*
X012392Y008086D01*
X012852Y008086D02*
X013159Y008086D01*
X015185Y019911D02*
X015185Y020218D01*
X015185Y020371D02*
X015185Y020678D01*
X015185Y020525D02*
X015645Y020525D01*
X015491Y020371D01*
X015645Y019911D02*
X015185Y019911D01*
D13*
X014937Y020200D03*
X014642Y020200D03*
D14*
X014790Y020200D03*
D15*
X022990Y014441D02*
X022990Y014291D01*
X025590Y014241D02*
X025590Y014441D01*
X026490Y015291D02*
X026490Y015441D01*
X029090Y015441D02*
X029090Y015241D01*
X029090Y013041D02*
X029090Y012841D01*
X029990Y012791D02*
X029990Y012941D01*
X029090Y011941D02*
X029090Y011741D01*
X029990Y010491D02*
X029990Y010341D01*
X029090Y009541D02*
X029090Y009341D01*
X026490Y009341D02*
X026490Y009491D01*
X026490Y011791D02*
X026490Y011941D01*
X025590Y012041D02*
X025590Y011841D01*
X026490Y012841D02*
X026490Y012991D01*
X022990Y011991D02*
X022990Y011841D01*
X032590Y012741D02*
X032590Y012941D01*
X032590Y010541D02*
X032590Y010341D01*
X014238Y000823D02*
X014179Y000932D01*
X010242Y000519D02*
X010223Y000519D01*
X010223Y000499D01*
M02*
