G75*
G70*
%OFA0B0*%
%FSLAX24Y24*%
%IPPOS*%
%LPD*%
%AMOC8*
5,1,8,0,0,1.08239X$1,22.5*
%
%ADD10C,0.0070*%
%ADD11C,0.0000*%
%ADD12C,0.0060*%
%ADD13C,0.0040*%
%ADD14R,0.0098X0.0098*%
%ADD15C,0.0050*%
%ADD16C,0.0080*%
%ADD17C,0.0100*%
%ADD18C,0.0030*%
D10*
X003790Y000141D02*
X003790Y021141D01*
X035790Y021141D01*
X035790Y000141D01*
X003790Y000141D01*
D11*
X004810Y003041D02*
X004812Y003091D01*
X004818Y003141D01*
X004828Y003190D01*
X004842Y003238D01*
X004859Y003285D01*
X004880Y003330D01*
X004905Y003374D01*
X004933Y003415D01*
X004965Y003454D01*
X004999Y003491D01*
X005036Y003525D01*
X005076Y003555D01*
X005118Y003582D01*
X005162Y003606D01*
X005208Y003627D01*
X005255Y003643D01*
X005303Y003656D01*
X005353Y003665D01*
X005402Y003670D01*
X005453Y003671D01*
X005503Y003668D01*
X005552Y003661D01*
X005601Y003650D01*
X005649Y003635D01*
X005695Y003617D01*
X005740Y003595D01*
X005783Y003569D01*
X005824Y003540D01*
X005863Y003508D01*
X005899Y003473D01*
X005931Y003435D01*
X005961Y003395D01*
X005988Y003352D01*
X006011Y003308D01*
X006030Y003262D01*
X006046Y003214D01*
X006058Y003165D01*
X006066Y003116D01*
X006070Y003066D01*
X006070Y003016D01*
X006066Y002966D01*
X006058Y002917D01*
X006046Y002868D01*
X006030Y002820D01*
X006011Y002774D01*
X005988Y002730D01*
X005961Y002687D01*
X005931Y002647D01*
X005899Y002609D01*
X005863Y002574D01*
X005824Y002542D01*
X005783Y002513D01*
X005740Y002487D01*
X005695Y002465D01*
X005649Y002447D01*
X005601Y002432D01*
X005552Y002421D01*
X005503Y002414D01*
X005453Y002411D01*
X005402Y002412D01*
X005353Y002417D01*
X005303Y002426D01*
X005255Y002439D01*
X005208Y002455D01*
X005162Y002476D01*
X005118Y002500D01*
X005076Y002527D01*
X005036Y002557D01*
X004999Y002591D01*
X004965Y002628D01*
X004933Y002667D01*
X004905Y002708D01*
X004880Y002752D01*
X004859Y002797D01*
X004842Y002844D01*
X004828Y002892D01*
X004818Y002941D01*
X004812Y002991D01*
X004810Y003041D01*
X004810Y013241D02*
X004812Y013291D01*
X004818Y013341D01*
X004828Y013390D01*
X004842Y013438D01*
X004859Y013485D01*
X004880Y013530D01*
X004905Y013574D01*
X004933Y013615D01*
X004965Y013654D01*
X004999Y013691D01*
X005036Y013725D01*
X005076Y013755D01*
X005118Y013782D01*
X005162Y013806D01*
X005208Y013827D01*
X005255Y013843D01*
X005303Y013856D01*
X005353Y013865D01*
X005402Y013870D01*
X005453Y013871D01*
X005503Y013868D01*
X005552Y013861D01*
X005601Y013850D01*
X005649Y013835D01*
X005695Y013817D01*
X005740Y013795D01*
X005783Y013769D01*
X005824Y013740D01*
X005863Y013708D01*
X005899Y013673D01*
X005931Y013635D01*
X005961Y013595D01*
X005988Y013552D01*
X006011Y013508D01*
X006030Y013462D01*
X006046Y013414D01*
X006058Y013365D01*
X006066Y013316D01*
X006070Y013266D01*
X006070Y013216D01*
X006066Y013166D01*
X006058Y013117D01*
X006046Y013068D01*
X006030Y013020D01*
X006011Y012974D01*
X005988Y012930D01*
X005961Y012887D01*
X005931Y012847D01*
X005899Y012809D01*
X005863Y012774D01*
X005824Y012742D01*
X005783Y012713D01*
X005740Y012687D01*
X005695Y012665D01*
X005649Y012647D01*
X005601Y012632D01*
X005552Y012621D01*
X005503Y012614D01*
X005453Y012611D01*
X005402Y012612D01*
X005353Y012617D01*
X005303Y012626D01*
X005255Y012639D01*
X005208Y012655D01*
X005162Y012676D01*
X005118Y012700D01*
X005076Y012727D01*
X005036Y012757D01*
X004999Y012791D01*
X004965Y012828D01*
X004933Y012867D01*
X004905Y012908D01*
X004880Y012952D01*
X004859Y012997D01*
X004842Y013044D01*
X004828Y013092D01*
X004818Y013141D01*
X004812Y013191D01*
X004810Y013241D01*
X009160Y020141D02*
X009162Y020191D01*
X009168Y020241D01*
X009178Y020290D01*
X009192Y020338D01*
X009209Y020385D01*
X009230Y020430D01*
X009255Y020474D01*
X009283Y020515D01*
X009315Y020554D01*
X009349Y020591D01*
X009386Y020625D01*
X009426Y020655D01*
X009468Y020682D01*
X009512Y020706D01*
X009558Y020727D01*
X009605Y020743D01*
X009653Y020756D01*
X009703Y020765D01*
X009752Y020770D01*
X009803Y020771D01*
X009853Y020768D01*
X009902Y020761D01*
X009951Y020750D01*
X009999Y020735D01*
X010045Y020717D01*
X010090Y020695D01*
X010133Y020669D01*
X010174Y020640D01*
X010213Y020608D01*
X010249Y020573D01*
X010281Y020535D01*
X010311Y020495D01*
X010338Y020452D01*
X010361Y020408D01*
X010380Y020362D01*
X010396Y020314D01*
X010408Y020265D01*
X010416Y020216D01*
X010420Y020166D01*
X010420Y020116D01*
X010416Y020066D01*
X010408Y020017D01*
X010396Y019968D01*
X010380Y019920D01*
X010361Y019874D01*
X010338Y019830D01*
X010311Y019787D01*
X010281Y019747D01*
X010249Y019709D01*
X010213Y019674D01*
X010174Y019642D01*
X010133Y019613D01*
X010090Y019587D01*
X010045Y019565D01*
X009999Y019547D01*
X009951Y019532D01*
X009902Y019521D01*
X009853Y019514D01*
X009803Y019511D01*
X009752Y019512D01*
X009703Y019517D01*
X009653Y019526D01*
X009605Y019539D01*
X009558Y019555D01*
X009512Y019576D01*
X009468Y019600D01*
X009426Y019627D01*
X009386Y019657D01*
X009349Y019691D01*
X009315Y019728D01*
X009283Y019767D01*
X009255Y019808D01*
X009230Y019852D01*
X009209Y019897D01*
X009192Y019944D01*
X009178Y019992D01*
X009168Y020041D01*
X009162Y020091D01*
X009160Y020141D01*
X034160Y014141D02*
X034162Y014191D01*
X034168Y014241D01*
X034178Y014290D01*
X034192Y014338D01*
X034209Y014385D01*
X034230Y014430D01*
X034255Y014474D01*
X034283Y014515D01*
X034315Y014554D01*
X034349Y014591D01*
X034386Y014625D01*
X034426Y014655D01*
X034468Y014682D01*
X034512Y014706D01*
X034558Y014727D01*
X034605Y014743D01*
X034653Y014756D01*
X034703Y014765D01*
X034752Y014770D01*
X034803Y014771D01*
X034853Y014768D01*
X034902Y014761D01*
X034951Y014750D01*
X034999Y014735D01*
X035045Y014717D01*
X035090Y014695D01*
X035133Y014669D01*
X035174Y014640D01*
X035213Y014608D01*
X035249Y014573D01*
X035281Y014535D01*
X035311Y014495D01*
X035338Y014452D01*
X035361Y014408D01*
X035380Y014362D01*
X035396Y014314D01*
X035408Y014265D01*
X035416Y014216D01*
X035420Y014166D01*
X035420Y014116D01*
X035416Y014066D01*
X035408Y014017D01*
X035396Y013968D01*
X035380Y013920D01*
X035361Y013874D01*
X035338Y013830D01*
X035311Y013787D01*
X035281Y013747D01*
X035249Y013709D01*
X035213Y013674D01*
X035174Y013642D01*
X035133Y013613D01*
X035090Y013587D01*
X035045Y013565D01*
X034999Y013547D01*
X034951Y013532D01*
X034902Y013521D01*
X034853Y013514D01*
X034803Y013511D01*
X034752Y013512D01*
X034703Y013517D01*
X034653Y013526D01*
X034605Y013539D01*
X034558Y013555D01*
X034512Y013576D01*
X034468Y013600D01*
X034426Y013627D01*
X034386Y013657D01*
X034349Y013691D01*
X034315Y013728D01*
X034283Y013767D01*
X034255Y013808D01*
X034230Y013852D01*
X034209Y013897D01*
X034192Y013944D01*
X034178Y013992D01*
X034168Y014041D01*
X034162Y014091D01*
X034160Y014141D01*
X034160Y003141D02*
X034162Y003191D01*
X034168Y003241D01*
X034178Y003290D01*
X034192Y003338D01*
X034209Y003385D01*
X034230Y003430D01*
X034255Y003474D01*
X034283Y003515D01*
X034315Y003554D01*
X034349Y003591D01*
X034386Y003625D01*
X034426Y003655D01*
X034468Y003682D01*
X034512Y003706D01*
X034558Y003727D01*
X034605Y003743D01*
X034653Y003756D01*
X034703Y003765D01*
X034752Y003770D01*
X034803Y003771D01*
X034853Y003768D01*
X034902Y003761D01*
X034951Y003750D01*
X034999Y003735D01*
X035045Y003717D01*
X035090Y003695D01*
X035133Y003669D01*
X035174Y003640D01*
X035213Y003608D01*
X035249Y003573D01*
X035281Y003535D01*
X035311Y003495D01*
X035338Y003452D01*
X035361Y003408D01*
X035380Y003362D01*
X035396Y003314D01*
X035408Y003265D01*
X035416Y003216D01*
X035420Y003166D01*
X035420Y003116D01*
X035416Y003066D01*
X035408Y003017D01*
X035396Y002968D01*
X035380Y002920D01*
X035361Y002874D01*
X035338Y002830D01*
X035311Y002787D01*
X035281Y002747D01*
X035249Y002709D01*
X035213Y002674D01*
X035174Y002642D01*
X035133Y002613D01*
X035090Y002587D01*
X035045Y002565D01*
X034999Y002547D01*
X034951Y002532D01*
X034902Y002521D01*
X034853Y002514D01*
X034803Y002511D01*
X034752Y002512D01*
X034703Y002517D01*
X034653Y002526D01*
X034605Y002539D01*
X034558Y002555D01*
X034512Y002576D01*
X034468Y002600D01*
X034426Y002627D01*
X034386Y002657D01*
X034349Y002691D01*
X034315Y002728D01*
X034283Y002767D01*
X034255Y002808D01*
X034230Y002852D01*
X034209Y002897D01*
X034192Y002944D01*
X034178Y002992D01*
X034168Y003041D01*
X034162Y003091D01*
X034160Y003141D01*
D12*
X034040Y001641D02*
X033540Y001641D01*
X033290Y001391D01*
X033290Y000891D01*
X033540Y000641D01*
X034040Y000641D01*
X034290Y000891D01*
X034290Y001391D01*
X034040Y001641D01*
X033290Y001391D02*
X033040Y001641D01*
X032540Y001641D01*
X032290Y001391D01*
X032290Y000891D01*
X032540Y000641D01*
X033040Y000641D01*
X033290Y000891D01*
X032290Y000891D02*
X032040Y000641D01*
X031540Y000641D01*
X031290Y000891D01*
X031040Y000641D01*
X030540Y000641D01*
X030290Y000891D01*
X030040Y000641D01*
X029540Y000641D01*
X029290Y000891D01*
X029040Y000641D01*
X028540Y000641D01*
X028290Y000891D01*
X028290Y001391D01*
X028540Y001641D01*
X029040Y001641D01*
X029290Y001391D01*
X029540Y001641D01*
X030040Y001641D01*
X030290Y001391D01*
X030290Y000891D01*
X030290Y001391D02*
X030540Y001641D01*
X031040Y001641D01*
X031290Y001391D01*
X031540Y001641D01*
X032040Y001641D01*
X032290Y001391D01*
X031290Y001391D02*
X031290Y000891D01*
X029290Y000891D02*
X029290Y001391D01*
X028040Y002641D02*
X027540Y002641D01*
X027290Y002891D01*
X027290Y004391D01*
X027540Y004641D01*
X028040Y004641D01*
X028290Y004391D01*
X028290Y002891D01*
X028040Y002641D01*
X027290Y002891D02*
X027040Y002641D01*
X026540Y002641D01*
X026290Y002891D01*
X026290Y004391D01*
X026540Y004641D01*
X027040Y004641D01*
X027290Y004391D01*
X026290Y004391D02*
X026040Y004641D01*
X025540Y004641D01*
X025290Y004391D01*
X025290Y002891D01*
X025540Y002641D01*
X026040Y002641D01*
X026290Y002891D01*
X025033Y002687D02*
X025033Y002046D01*
X024820Y002046D02*
X025247Y002046D01*
X025040Y001641D02*
X024540Y001641D01*
X024290Y001391D01*
X024290Y000891D01*
X024540Y000641D01*
X025040Y000641D01*
X025290Y000891D01*
X025540Y000641D01*
X026040Y000641D01*
X026290Y000891D01*
X026540Y000641D01*
X027040Y000641D01*
X027290Y000891D01*
X027290Y001391D01*
X027040Y001641D01*
X026540Y001641D01*
X026290Y001391D01*
X026290Y000891D01*
X026290Y001391D02*
X026040Y001641D01*
X025540Y001641D01*
X025290Y001391D01*
X025290Y000891D01*
X025290Y001391D02*
X025040Y001641D01*
X024290Y001391D02*
X024040Y001641D01*
X023540Y001641D01*
X023290Y001391D01*
X023290Y000891D01*
X023040Y000641D01*
X022540Y000641D01*
X022290Y000891D01*
X022040Y000641D01*
X021540Y000641D01*
X021290Y000891D01*
X021290Y001391D01*
X021540Y001641D01*
X022040Y001641D01*
X022290Y001391D01*
X022540Y001641D01*
X023040Y001641D01*
X023290Y001391D01*
X023290Y000891D02*
X023540Y000641D01*
X024040Y000641D01*
X024290Y000891D01*
X022290Y000891D02*
X022290Y001391D01*
X022540Y002641D02*
X023040Y002641D01*
X023290Y002891D01*
X023540Y002641D01*
X024040Y002641D01*
X024290Y002891D01*
X024290Y004391D01*
X024040Y004641D01*
X023540Y004641D01*
X023290Y004391D01*
X023290Y002891D01*
X022540Y002641D02*
X022290Y002891D01*
X022290Y004391D01*
X022540Y004641D01*
X023040Y004641D01*
X023290Y004391D01*
X022290Y004391D02*
X022040Y004641D01*
X021540Y004641D01*
X021290Y004391D01*
X021290Y002891D01*
X021540Y002641D01*
X022040Y002641D01*
X022290Y002891D01*
X020997Y002671D02*
X020570Y002671D01*
X020783Y002671D02*
X020783Y003312D01*
X020570Y003098D01*
X024820Y002473D02*
X025033Y002687D01*
X025410Y007761D02*
X028030Y007761D01*
X028170Y007901D01*
X028170Y010521D01*
X025410Y010521D01*
X025410Y007761D01*
X027729Y008061D02*
X027731Y008084D01*
X027737Y008107D01*
X027746Y008128D01*
X027759Y008148D01*
X027775Y008165D01*
X027793Y008179D01*
X027813Y008190D01*
X027835Y008198D01*
X027858Y008202D01*
X027882Y008202D01*
X027905Y008198D01*
X027927Y008190D01*
X027947Y008179D01*
X027965Y008165D01*
X027981Y008148D01*
X027994Y008128D01*
X028003Y008107D01*
X028009Y008084D01*
X028011Y008061D01*
X028009Y008038D01*
X028003Y008015D01*
X027994Y007994D01*
X027981Y007974D01*
X027965Y007957D01*
X027947Y007943D01*
X027927Y007932D01*
X027905Y007924D01*
X027882Y007920D01*
X027858Y007920D01*
X027835Y007924D01*
X027813Y007932D01*
X027793Y007943D01*
X027775Y007957D01*
X027759Y007974D01*
X027746Y007994D01*
X027737Y008015D01*
X027731Y008038D01*
X027729Y008061D01*
X020670Y012261D02*
X020670Y014881D01*
X020530Y015021D01*
X017910Y015021D01*
X017910Y012261D01*
X020670Y012261D01*
X020229Y014721D02*
X020231Y014744D01*
X020237Y014767D01*
X020246Y014788D01*
X020259Y014808D01*
X020275Y014825D01*
X020293Y014839D01*
X020313Y014850D01*
X020335Y014858D01*
X020358Y014862D01*
X020382Y014862D01*
X020405Y014858D01*
X020427Y014850D01*
X020447Y014839D01*
X020465Y014825D01*
X020481Y014808D01*
X020494Y014788D01*
X020503Y014767D01*
X020509Y014744D01*
X020511Y014721D01*
X020509Y014698D01*
X020503Y014675D01*
X020494Y014654D01*
X020481Y014634D01*
X020465Y014617D01*
X020447Y014603D01*
X020427Y014592D01*
X020405Y014584D01*
X020382Y014580D01*
X020358Y014580D01*
X020335Y014584D01*
X020313Y014592D01*
X020293Y014603D01*
X020275Y014617D01*
X020259Y014634D01*
X020246Y014654D01*
X020237Y014675D01*
X020231Y014698D01*
X020229Y014721D01*
X015790Y015891D02*
X015790Y017391D01*
X015540Y017641D01*
X015040Y017641D01*
X014790Y017391D01*
X014790Y015891D01*
X015040Y015641D01*
X015540Y015641D01*
X015790Y015891D01*
X014790Y015891D02*
X014540Y015641D01*
X014040Y015641D01*
X013790Y015891D01*
X013790Y017391D01*
X014040Y017641D01*
X014540Y017641D01*
X014790Y017391D01*
X013790Y017391D02*
X013540Y017641D01*
X013040Y017641D01*
X012790Y017391D01*
X012790Y015891D01*
X013040Y015641D01*
X013540Y015641D01*
X013790Y015891D01*
X012497Y015171D02*
X012070Y015171D01*
X012283Y015171D02*
X012283Y015812D01*
X012070Y015598D01*
X008850Y016081D02*
X008530Y016081D01*
X008530Y016301D01*
X008530Y016981D02*
X008530Y017201D01*
X008850Y017201D01*
X008350Y015076D02*
X008030Y015076D01*
X008030Y014856D01*
X008030Y014176D02*
X008030Y013956D01*
X008350Y013956D01*
X011910Y009021D02*
X014670Y009021D01*
X014670Y006401D01*
X014530Y006261D01*
X011910Y006261D01*
X011910Y009021D01*
X008350Y008701D02*
X008030Y008701D01*
X008030Y008481D01*
X008030Y007801D02*
X008030Y007581D01*
X008350Y007581D01*
X008530Y004576D02*
X008530Y004356D01*
X008530Y004576D02*
X008850Y004576D01*
X008530Y003676D02*
X008530Y003456D01*
X008850Y003456D01*
X014229Y006561D02*
X014231Y006584D01*
X014237Y006607D01*
X014246Y006628D01*
X014259Y006648D01*
X014275Y006665D01*
X014293Y006679D01*
X014313Y006690D01*
X014335Y006698D01*
X014358Y006702D01*
X014382Y006702D01*
X014405Y006698D01*
X014427Y006690D01*
X014447Y006679D01*
X014465Y006665D01*
X014481Y006648D01*
X014494Y006628D01*
X014503Y006607D01*
X014509Y006584D01*
X014511Y006561D01*
X014509Y006538D01*
X014503Y006515D01*
X014494Y006494D01*
X014481Y006474D01*
X014465Y006457D01*
X014447Y006443D01*
X014427Y006432D01*
X014405Y006424D01*
X014382Y006420D01*
X014358Y006420D01*
X014335Y006424D01*
X014313Y006432D01*
X014293Y006443D01*
X014275Y006457D01*
X014259Y006474D01*
X014246Y006494D01*
X014237Y006515D01*
X014231Y006538D01*
X014229Y006561D01*
X029820Y016171D02*
X030140Y016171D01*
X030247Y016278D01*
X030247Y016491D01*
X030140Y016598D01*
X029820Y016598D01*
X029820Y016812D02*
X029820Y016171D01*
X030464Y016278D02*
X030464Y016491D01*
X030571Y016598D01*
X030891Y016598D01*
X031109Y016491D02*
X031109Y016278D01*
X031215Y016171D01*
X031536Y016171D01*
X031536Y016064D02*
X031536Y016598D01*
X031215Y016598D01*
X031109Y016491D01*
X030891Y016171D02*
X030571Y016171D01*
X030464Y016278D01*
X031322Y015958D02*
X031429Y015958D01*
X031536Y016064D01*
X031504Y017171D02*
X031398Y017278D01*
X031504Y017385D01*
X031825Y017385D01*
X031825Y017491D02*
X031718Y017598D01*
X031504Y017598D01*
X031825Y017491D02*
X031825Y017171D01*
X031504Y017171D01*
X031180Y017278D02*
X031180Y017705D01*
X031073Y017812D01*
X030860Y017812D01*
X030753Y017705D01*
X030753Y017598D01*
X030860Y017491D01*
X031180Y017491D01*
X031180Y017278D02*
X031073Y017171D01*
X030860Y017171D01*
X030753Y017278D01*
X030536Y017171D02*
X030109Y017171D01*
X030322Y017171D02*
X030322Y017812D01*
X030109Y017598D01*
X029891Y017598D02*
X029571Y017598D01*
X029464Y017491D01*
X029464Y017278D01*
X029571Y017171D01*
X029891Y017171D01*
X029247Y017171D02*
X028820Y017171D01*
X029247Y017598D01*
X028820Y017598D01*
X028533Y018171D02*
X028533Y018812D01*
X028320Y018812D02*
X028747Y018812D01*
X028964Y018598D02*
X029178Y018171D01*
X029391Y018598D01*
X029609Y018598D02*
X029715Y018598D01*
X029715Y018171D01*
X029609Y018171D02*
X029822Y018171D01*
X030038Y018171D02*
X030038Y018812D01*
X029715Y018812D02*
X029715Y018918D01*
X030038Y018385D02*
X030359Y018598D01*
X030575Y018598D02*
X030682Y018598D01*
X030682Y018171D01*
X030575Y018171D02*
X030789Y018171D01*
X031005Y018278D02*
X031112Y018385D01*
X031432Y018385D01*
X031432Y018491D02*
X031432Y018171D01*
X031112Y018171D01*
X031005Y018278D01*
X030359Y018171D02*
X030038Y018385D01*
X030682Y018812D02*
X030682Y018918D01*
X031112Y018598D02*
X031325Y018598D01*
X031432Y018491D01*
X031540Y019641D02*
X031290Y019891D01*
X031040Y019641D01*
X030540Y019641D01*
X030290Y019891D01*
X030040Y019641D01*
X029540Y019641D01*
X029290Y019891D01*
X029290Y020391D01*
X029540Y020641D01*
X030040Y020641D01*
X030290Y020391D01*
X030540Y020641D01*
X031040Y020641D01*
X031290Y020391D01*
X031540Y020641D01*
X032040Y020641D01*
X032290Y020391D01*
X032540Y020641D01*
X033040Y020641D01*
X033290Y020391D01*
X033540Y020641D01*
X034040Y020641D01*
X034290Y020391D01*
X034290Y019891D01*
X034040Y019641D01*
X033540Y019641D01*
X033290Y019891D01*
X033040Y019641D01*
X032540Y019641D01*
X032290Y019891D01*
X032290Y020391D01*
X032290Y019891D02*
X032040Y019641D01*
X031540Y019641D01*
X031290Y019891D02*
X031290Y020391D01*
X030290Y020391D02*
X030290Y019891D01*
X029290Y019891D02*
X029040Y019641D01*
X028540Y019641D01*
X028290Y019891D01*
X028040Y019641D01*
X027540Y019641D01*
X027290Y019891D01*
X027040Y019641D01*
X026540Y019641D01*
X026290Y019891D01*
X026290Y020391D01*
X026540Y020641D01*
X027040Y020641D01*
X027290Y020391D01*
X027540Y020641D01*
X028040Y020641D01*
X028290Y020391D01*
X028540Y020641D01*
X029040Y020641D01*
X029290Y020391D01*
X028290Y020391D02*
X028290Y019891D01*
X027290Y019891D02*
X027290Y020391D01*
X025690Y020391D02*
X025690Y019891D01*
X025440Y019641D01*
X024940Y019641D01*
X024690Y019891D01*
X024440Y019641D01*
X023940Y019641D01*
X023690Y019891D01*
X023690Y020391D01*
X023940Y020641D01*
X024440Y020641D01*
X024690Y020391D01*
X024940Y020641D01*
X025440Y020641D01*
X025690Y020391D01*
X024690Y020391D02*
X024690Y019891D01*
X023690Y019891D02*
X023440Y019641D01*
X022940Y019641D01*
X022690Y019891D01*
X022440Y019641D01*
X021940Y019641D01*
X021690Y019891D01*
X021440Y019641D01*
X020940Y019641D01*
X020690Y019891D01*
X020690Y020391D01*
X020940Y020641D01*
X021440Y020641D01*
X021690Y020391D01*
X021940Y020641D01*
X022440Y020641D01*
X022690Y020391D01*
X022940Y020641D01*
X023440Y020641D01*
X023690Y020391D01*
X022690Y020391D02*
X022690Y019891D01*
X021690Y019891D02*
X021690Y020391D01*
X020690Y020391D02*
X020440Y020641D01*
X019940Y020641D01*
X019690Y020391D01*
X019440Y020641D01*
X018940Y020641D01*
X018690Y020391D01*
X018440Y020641D01*
X017940Y020641D01*
X017690Y020391D01*
X017690Y019891D01*
X017940Y019641D01*
X018440Y019641D01*
X018690Y019891D01*
X018690Y020391D01*
X018690Y019891D02*
X018940Y019641D01*
X019440Y019641D01*
X019690Y019891D01*
X019690Y020391D01*
X019690Y019891D02*
X019940Y019641D01*
X020440Y019641D01*
X020690Y019891D01*
X033290Y019891D02*
X033290Y020391D01*
X033290Y016641D02*
X033292Y016704D01*
X033298Y016766D01*
X033308Y016828D01*
X033321Y016890D01*
X033339Y016950D01*
X033360Y017009D01*
X033385Y017067D01*
X033414Y017123D01*
X033446Y017177D01*
X033481Y017229D01*
X033519Y017278D01*
X033561Y017326D01*
X033605Y017370D01*
X033653Y017412D01*
X033702Y017450D01*
X033754Y017485D01*
X033808Y017517D01*
X033864Y017546D01*
X033922Y017571D01*
X033981Y017592D01*
X034041Y017610D01*
X034103Y017623D01*
X034165Y017633D01*
X034227Y017639D01*
X034290Y017641D01*
X034353Y017639D01*
X034415Y017633D01*
X034477Y017623D01*
X034539Y017610D01*
X034599Y017592D01*
X034658Y017571D01*
X034716Y017546D01*
X034772Y017517D01*
X034826Y017485D01*
X034878Y017450D01*
X034927Y017412D01*
X034975Y017370D01*
X035019Y017326D01*
X035061Y017278D01*
X035099Y017229D01*
X035134Y017177D01*
X035166Y017123D01*
X035195Y017067D01*
X035220Y017009D01*
X035241Y016950D01*
X035259Y016890D01*
X035272Y016828D01*
X035282Y016766D01*
X035288Y016704D01*
X035290Y016641D01*
X035288Y016578D01*
X035282Y016516D01*
X035272Y016454D01*
X035259Y016392D01*
X035241Y016332D01*
X035220Y016273D01*
X035195Y016215D01*
X035166Y016159D01*
X035134Y016105D01*
X035099Y016053D01*
X035061Y016004D01*
X035019Y015956D01*
X034975Y015912D01*
X034927Y015870D01*
X034878Y015832D01*
X034826Y015797D01*
X034772Y015765D01*
X034716Y015736D01*
X034658Y015711D01*
X034599Y015690D01*
X034539Y015672D01*
X034477Y015659D01*
X034415Y015649D01*
X034353Y015643D01*
X034290Y015641D01*
X034227Y015643D01*
X034165Y015649D01*
X034103Y015659D01*
X034041Y015672D01*
X033981Y015690D01*
X033922Y015711D01*
X033864Y015736D01*
X033808Y015765D01*
X033754Y015797D01*
X033702Y015832D01*
X033653Y015870D01*
X033605Y015912D01*
X033561Y015956D01*
X033519Y016004D01*
X033481Y016053D01*
X033446Y016105D01*
X033414Y016159D01*
X033385Y016215D01*
X033360Y016273D01*
X033339Y016332D01*
X033321Y016392D01*
X033308Y016454D01*
X033298Y016516D01*
X033292Y016578D01*
X033290Y016641D01*
D13*
X032795Y015078D02*
X032795Y014771D01*
X032795Y014618D02*
X032641Y014465D01*
X032641Y014541D02*
X032641Y014311D01*
X032795Y014311D02*
X032334Y014311D01*
X032334Y014541D01*
X032411Y014618D01*
X032564Y014618D01*
X032641Y014541D01*
X032488Y014771D02*
X032334Y014925D01*
X032795Y014925D01*
X032239Y012664D02*
X032239Y012357D01*
X032009Y012587D01*
X032470Y012587D01*
X032239Y012203D02*
X032239Y011896D01*
X032009Y012127D01*
X032470Y012127D01*
X032393Y011743D02*
X032470Y011666D01*
X032470Y011513D01*
X032393Y011436D01*
X032086Y011436D01*
X032009Y011513D01*
X032009Y011666D01*
X032086Y011743D01*
X031158Y011869D02*
X031158Y011562D01*
X031081Y011485D01*
X030928Y011485D01*
X030851Y011562D01*
X031158Y011869D01*
X031081Y011945D01*
X030928Y011945D01*
X030851Y011869D01*
X030851Y011562D01*
X030698Y011715D02*
X030391Y011715D01*
X030621Y011945D01*
X030621Y011485D01*
X030237Y011485D02*
X030084Y011638D01*
X030237Y011562D02*
X030161Y011485D01*
X030007Y011485D01*
X029930Y011562D01*
X029930Y011869D01*
X030007Y011945D01*
X030161Y011945D01*
X030237Y011869D01*
X030237Y011562D01*
X029768Y009914D02*
X029845Y009837D01*
X029845Y009684D01*
X029768Y009607D01*
X029614Y009607D02*
X029538Y009760D01*
X029538Y009837D01*
X029614Y009914D01*
X029768Y009914D01*
X029614Y009607D02*
X029384Y009607D01*
X029384Y009914D01*
X029614Y009453D02*
X029614Y009146D01*
X029384Y009377D01*
X029845Y009377D01*
X029768Y008993D02*
X029845Y008916D01*
X029845Y008763D01*
X029768Y008686D01*
X029461Y008686D01*
X029384Y008763D01*
X029384Y008916D01*
X029461Y008993D01*
X029461Y008039D02*
X029538Y008039D01*
X029614Y007962D01*
X029691Y008039D01*
X029768Y008039D01*
X029845Y007962D01*
X029845Y007809D01*
X029768Y007732D01*
X029614Y007885D02*
X029614Y007962D01*
X029461Y008039D02*
X029384Y007962D01*
X029384Y007809D01*
X029461Y007732D01*
X029614Y007578D02*
X029614Y007271D01*
X029384Y007502D01*
X029845Y007502D01*
X029768Y007118D02*
X029845Y007041D01*
X029845Y006888D01*
X029768Y006811D01*
X029461Y006811D01*
X029384Y006888D01*
X029384Y007041D01*
X029461Y007118D01*
X018312Y007441D02*
X018005Y007441D01*
X018235Y007671D01*
X018235Y007211D01*
X017852Y007211D02*
X017545Y007211D01*
X017852Y007518D01*
X017852Y007595D01*
X017775Y007671D01*
X017622Y007671D01*
X017545Y007595D01*
X017391Y007595D02*
X017315Y007671D01*
X017161Y007671D01*
X017085Y007595D01*
X017085Y007288D01*
X017161Y007211D01*
X017315Y007211D01*
X017391Y007288D01*
X016321Y008109D02*
X016244Y008032D01*
X015937Y008032D01*
X015860Y008109D01*
X015860Y008262D01*
X015937Y008339D01*
X016244Y008339D01*
X016321Y008262D01*
X016321Y008109D01*
X016167Y008185D02*
X016321Y008339D01*
X016321Y008492D02*
X016014Y008799D01*
X015937Y008799D01*
X015860Y008722D01*
X015860Y008569D01*
X015937Y008492D01*
X016321Y008492D02*
X016321Y008799D01*
X016244Y008953D02*
X015937Y009260D01*
X016244Y009260D01*
X016321Y009183D01*
X016321Y009029D01*
X016244Y008953D01*
X015937Y008953D01*
X015860Y009029D01*
X015860Y009183D01*
X015937Y009260D01*
X017036Y010586D02*
X017190Y010586D01*
X017266Y010663D01*
X017420Y010586D02*
X017727Y010893D01*
X017727Y010970D01*
X017650Y011046D01*
X017497Y011046D01*
X017420Y010970D01*
X017266Y010970D02*
X017190Y011046D01*
X017036Y011046D01*
X016960Y010970D01*
X016960Y010663D01*
X017036Y010586D01*
X017420Y010586D02*
X017727Y010586D01*
X017880Y010663D02*
X017957Y010586D01*
X018110Y010586D01*
X018187Y010663D01*
X018187Y010816D01*
X018110Y010893D01*
X018034Y010893D01*
X017880Y010816D01*
X017880Y011046D01*
X018187Y011046D01*
X014195Y013207D02*
X014195Y013360D01*
X014118Y013437D01*
X014118Y013590D02*
X014195Y013667D01*
X014195Y013820D01*
X014118Y013897D01*
X014041Y013897D01*
X013964Y013820D01*
X013964Y013744D01*
X013964Y013820D02*
X013888Y013897D01*
X013811Y013897D01*
X013734Y013820D01*
X013734Y013667D01*
X013811Y013590D01*
X013811Y013437D02*
X013734Y013360D01*
X013734Y013207D01*
X013811Y013130D01*
X014118Y013130D01*
X014195Y013207D01*
X014118Y014051D02*
X013811Y014051D01*
X013734Y014127D01*
X013734Y014281D01*
X013811Y014358D01*
X014118Y014051D01*
X014195Y014127D01*
X014195Y014281D01*
X014118Y014358D01*
X013811Y014358D01*
X017558Y016289D02*
X017558Y016596D01*
X017634Y016673D01*
X017788Y016673D01*
X017865Y016596D01*
X017865Y016289D01*
X017788Y016212D01*
X017634Y016212D01*
X017558Y016289D01*
X017711Y016366D02*
X017865Y016212D01*
X018018Y016289D02*
X018095Y016212D01*
X018248Y016212D01*
X018325Y016289D01*
X018325Y016366D01*
X018248Y016442D01*
X018171Y016442D01*
X018248Y016442D02*
X018325Y016519D01*
X018325Y016596D01*
X018248Y016673D01*
X018095Y016673D01*
X018018Y016596D01*
X018478Y016596D02*
X018478Y016289D01*
X018785Y016596D01*
X018785Y016289D01*
X018709Y016212D01*
X018555Y016212D01*
X018478Y016289D01*
X018478Y016596D02*
X018555Y016673D01*
X018709Y016673D01*
X018785Y016596D01*
X020234Y016707D02*
X020311Y016630D01*
X020618Y016630D01*
X020695Y016707D01*
X020695Y016860D01*
X020618Y016937D01*
X020618Y017090D02*
X020695Y017167D01*
X020695Y017320D01*
X020618Y017397D01*
X020541Y017397D01*
X020464Y017320D01*
X020464Y017244D01*
X020464Y017320D02*
X020388Y017397D01*
X020311Y017397D01*
X020234Y017320D01*
X020234Y017167D01*
X020311Y017090D01*
X020311Y016937D02*
X020234Y016860D01*
X020234Y016707D01*
X020234Y017551D02*
X020464Y017551D01*
X020388Y017704D01*
X020388Y017781D01*
X020464Y017858D01*
X020618Y017858D01*
X020695Y017781D01*
X020695Y017627D01*
X020618Y017551D01*
X020234Y017551D02*
X020234Y017858D01*
X022784Y017880D02*
X022784Y018110D01*
X022861Y018187D01*
X023014Y018187D01*
X023091Y018110D01*
X023091Y017880D01*
X023091Y018033D02*
X023245Y018187D01*
X023168Y018340D02*
X023245Y018417D01*
X023245Y018570D01*
X023168Y018647D01*
X023091Y018647D01*
X023014Y018570D01*
X023014Y018494D01*
X023014Y018570D02*
X022938Y018647D01*
X022861Y018647D01*
X022784Y018570D01*
X022784Y018417D01*
X022861Y018340D01*
X022861Y018801D02*
X022784Y018877D01*
X022784Y019031D01*
X022861Y019108D01*
X022938Y019108D01*
X023245Y018801D01*
X023245Y019108D01*
X023245Y017880D02*
X022784Y017880D01*
X023870Y016233D02*
X023870Y015926D01*
X023870Y016079D02*
X023409Y016079D01*
X023563Y015926D01*
X023563Y015772D02*
X023639Y015695D01*
X023716Y015772D01*
X023793Y015772D01*
X023870Y015695D01*
X023870Y015542D01*
X023793Y015465D01*
X023870Y015312D02*
X023716Y015158D01*
X023716Y015235D02*
X023716Y015005D01*
X023870Y015005D02*
X023409Y015005D01*
X023409Y015235D01*
X023486Y015312D01*
X023639Y015312D01*
X023716Y015235D01*
X023486Y015465D02*
X023409Y015542D01*
X023409Y015695D01*
X023486Y015772D01*
X023563Y015772D01*
X023639Y015695D02*
X023639Y015619D01*
X024210Y015665D02*
X024440Y015665D01*
X024516Y015741D01*
X024516Y015895D01*
X024440Y015971D01*
X024210Y015971D01*
X024210Y015511D01*
X024363Y015665D02*
X024516Y015511D01*
X024670Y015588D02*
X024747Y015511D01*
X024900Y015511D01*
X024977Y015588D01*
X024977Y015665D01*
X024900Y015741D01*
X024823Y015741D01*
X024900Y015741D02*
X024977Y015818D01*
X024977Y015895D01*
X024900Y015971D01*
X024747Y015971D01*
X024670Y015895D01*
X025130Y015895D02*
X025130Y015588D01*
X025437Y015895D01*
X025437Y015588D01*
X025360Y015511D01*
X025207Y015511D01*
X025130Y015588D01*
X025130Y015895D02*
X025207Y015971D01*
X025360Y015971D01*
X025437Y015895D01*
X016345Y017388D02*
X016345Y017541D01*
X016268Y017618D01*
X016268Y017771D02*
X016345Y017848D01*
X016345Y018002D01*
X016268Y018078D01*
X016191Y018078D01*
X016114Y018002D01*
X016114Y017925D01*
X016114Y018002D02*
X016038Y018078D01*
X015961Y018078D01*
X015884Y018002D01*
X015884Y017848D01*
X015961Y017771D01*
X015961Y017618D02*
X015884Y017541D01*
X015884Y017388D01*
X015961Y017311D01*
X016268Y017311D01*
X016345Y017388D01*
X015745Y018090D02*
X015284Y018090D01*
X015284Y018321D01*
X015361Y018397D01*
X015514Y018397D01*
X015591Y018321D01*
X015591Y018090D01*
X015591Y018244D02*
X015745Y018397D01*
X015884Y018462D02*
X016114Y018232D01*
X016114Y018539D01*
X015884Y018462D02*
X016345Y018462D01*
X015745Y018551D02*
X015745Y018858D01*
X015745Y018551D02*
X015438Y018858D01*
X015361Y018858D01*
X015284Y018781D01*
X015284Y018627D01*
X015361Y018551D01*
X013305Y019461D02*
X012844Y019461D01*
X012844Y019691D01*
X012921Y019768D01*
X013074Y019768D01*
X013151Y019691D01*
X013151Y019461D01*
X013151Y019615D02*
X013305Y019768D01*
X013228Y019921D02*
X013305Y019998D01*
X013305Y020152D01*
X013228Y020228D01*
X013074Y020228D01*
X012998Y020152D01*
X012998Y020075D01*
X013074Y019921D01*
X012844Y019921D01*
X012844Y020228D01*
X012921Y020382D02*
X012844Y020459D01*
X012844Y020612D01*
X012921Y020689D01*
X012998Y020689D01*
X013074Y020612D01*
X013151Y020689D01*
X013228Y020689D01*
X013305Y020612D01*
X013305Y020459D01*
X013228Y020382D01*
X013074Y020535D02*
X013074Y020612D01*
X011520Y019258D02*
X011520Y018951D01*
X011213Y019258D01*
X011136Y019258D01*
X011059Y019181D01*
X011059Y019027D01*
X011136Y018951D01*
X010937Y019095D02*
X010937Y018788D01*
X010860Y018711D01*
X010707Y018711D01*
X010630Y018788D01*
X010937Y019095D01*
X010860Y019171D01*
X010707Y019171D01*
X010630Y019095D01*
X010630Y018788D01*
X010477Y018788D02*
X010400Y018711D01*
X010247Y018711D01*
X010170Y018788D01*
X010170Y018941D02*
X010323Y019018D01*
X010400Y019018D01*
X010477Y018941D01*
X010477Y018788D01*
X010170Y018941D02*
X010170Y019171D01*
X010477Y019171D01*
X010016Y019095D02*
X009940Y019171D01*
X009786Y019171D01*
X009710Y019095D01*
X009710Y018788D01*
X009786Y018711D01*
X009940Y018711D01*
X010016Y018788D01*
X009256Y018695D02*
X009179Y018771D01*
X009026Y018771D01*
X008949Y018695D01*
X008796Y018771D02*
X008489Y018771D01*
X008489Y018541D01*
X008642Y018618D01*
X008719Y018618D01*
X008796Y018541D01*
X008796Y018388D01*
X008719Y018311D01*
X008566Y018311D01*
X008489Y018388D01*
X008335Y018311D02*
X008182Y018465D01*
X008259Y018465D02*
X008028Y018465D01*
X008028Y018311D02*
X008028Y018771D01*
X008259Y018771D01*
X008335Y018695D01*
X008335Y018541D01*
X008259Y018465D01*
X008315Y017971D02*
X008085Y017971D01*
X008085Y017511D01*
X008085Y017665D02*
X008315Y017665D01*
X008391Y017741D01*
X008391Y017895D01*
X008315Y017971D01*
X008545Y017971D02*
X008545Y017741D01*
X008698Y017818D01*
X008775Y017818D01*
X008852Y017741D01*
X008852Y017588D01*
X008775Y017511D01*
X008622Y017511D01*
X008545Y017588D01*
X008391Y017511D02*
X008238Y017665D01*
X008545Y017971D02*
X008852Y017971D01*
X009005Y017895D02*
X009082Y017971D01*
X009235Y017971D01*
X009312Y017895D01*
X009005Y017588D01*
X009082Y017511D01*
X009235Y017511D01*
X009312Y017588D01*
X009312Y017895D01*
X009005Y017895D02*
X009005Y017588D01*
X008949Y018311D02*
X009256Y018618D01*
X009256Y018695D01*
X009256Y018311D02*
X008949Y018311D01*
X010460Y017595D02*
X010460Y017288D01*
X010536Y017211D01*
X010690Y017211D01*
X010766Y017288D01*
X010920Y017288D02*
X010997Y017211D01*
X011150Y017211D01*
X011227Y017288D01*
X011227Y017441D01*
X011150Y017518D01*
X011073Y017518D01*
X010920Y017441D01*
X010920Y017671D01*
X011227Y017671D01*
X011380Y017518D02*
X011534Y017671D01*
X011534Y017211D01*
X011687Y017211D02*
X011380Y017211D01*
X010766Y017595D02*
X010690Y017671D01*
X010536Y017671D01*
X010460Y017595D01*
X011059Y018490D02*
X011520Y018490D01*
X011520Y018797D01*
X007827Y020036D02*
X007520Y020036D01*
X007673Y020036D02*
X007673Y020496D01*
X007520Y020343D01*
X007366Y020496D02*
X007060Y020496D01*
X007060Y020036D01*
X007060Y020266D02*
X007213Y020266D01*
X007196Y016871D02*
X006889Y016871D01*
X006889Y016641D01*
X007042Y016718D01*
X007119Y016718D01*
X007196Y016641D01*
X007196Y016488D01*
X007119Y016411D01*
X006966Y016411D01*
X006889Y016488D01*
X006735Y016488D02*
X006735Y016795D01*
X006659Y016871D01*
X006428Y016871D01*
X006428Y016411D01*
X006659Y016411D01*
X006735Y016488D01*
X007349Y016411D02*
X007656Y016411D01*
X007503Y016411D02*
X007503Y016871D01*
X007349Y016718D01*
X008085Y015846D02*
X008315Y015846D01*
X008391Y015770D01*
X008391Y015616D01*
X008315Y015540D01*
X008085Y015540D01*
X008238Y015540D02*
X008391Y015386D01*
X008545Y015463D02*
X008622Y015386D01*
X008775Y015386D01*
X008852Y015463D01*
X008852Y015616D01*
X008775Y015693D01*
X008698Y015693D01*
X008545Y015616D01*
X008545Y015846D01*
X008852Y015846D01*
X009005Y015693D02*
X009159Y015846D01*
X009159Y015386D01*
X009312Y015386D02*
X009005Y015386D01*
X008085Y015386D02*
X008085Y015846D01*
X007079Y014746D02*
X006926Y014746D01*
X006849Y014670D01*
X006849Y014363D01*
X007156Y014670D01*
X007156Y014363D01*
X007079Y014286D01*
X006926Y014286D01*
X006849Y014363D01*
X006696Y014363D02*
X006619Y014286D01*
X006466Y014286D01*
X006389Y014363D01*
X006389Y014516D02*
X006542Y014593D01*
X006619Y014593D01*
X006696Y014516D01*
X006696Y014363D01*
X006389Y014516D02*
X006389Y014746D01*
X006696Y014746D01*
X007079Y014746D02*
X007156Y014670D01*
X006235Y014670D02*
X006235Y014363D01*
X006159Y014286D01*
X005928Y014286D01*
X005928Y014746D01*
X006159Y014746D01*
X006235Y014670D01*
X009161Y011421D02*
X009085Y011345D01*
X009085Y011038D01*
X009161Y010961D01*
X009315Y010961D01*
X009391Y011038D01*
X009545Y010961D02*
X009852Y010961D01*
X009698Y010961D02*
X009698Y011421D01*
X009545Y011268D01*
X009391Y011345D02*
X009315Y011421D01*
X009161Y011421D01*
X009585Y010471D02*
X009815Y010471D01*
X009891Y010395D01*
X009891Y010241D01*
X009815Y010165D01*
X009585Y010165D01*
X009738Y010165D02*
X009891Y010011D01*
X010045Y010241D02*
X010352Y010241D01*
X010275Y010011D02*
X010275Y010471D01*
X010045Y010241D01*
X009585Y010011D02*
X009585Y010471D01*
X009329Y009496D02*
X009176Y009496D01*
X009099Y009420D01*
X009099Y009113D01*
X009406Y009420D01*
X009406Y009113D01*
X009329Y009036D01*
X009176Y009036D01*
X009099Y009113D01*
X008946Y009036D02*
X008639Y009036D01*
X008946Y009343D01*
X008946Y009420D01*
X008869Y009496D01*
X008716Y009496D01*
X008639Y009420D01*
X008485Y009420D02*
X008409Y009496D01*
X008178Y009496D01*
X008178Y009036D01*
X008409Y009036D01*
X008485Y009113D01*
X008485Y009420D01*
X009329Y009496D02*
X009406Y009420D01*
X012759Y010263D02*
X012836Y010186D01*
X013143Y010186D01*
X013220Y010263D01*
X013220Y010416D01*
X013143Y010493D01*
X013220Y010646D02*
X012913Y010953D01*
X012836Y010953D01*
X012759Y010877D01*
X012759Y010723D01*
X012836Y010646D01*
X012836Y010493D02*
X012759Y010416D01*
X012759Y010263D01*
X013220Y010646D02*
X013220Y010953D01*
X013143Y011107D02*
X012836Y011107D01*
X012759Y011184D01*
X012759Y011337D01*
X012836Y011414D01*
X013143Y011107D01*
X013220Y011184D01*
X013220Y011337D01*
X013143Y011414D01*
X012836Y011414D01*
X009110Y007346D02*
X009187Y007270D01*
X008880Y006963D01*
X008957Y006886D01*
X009110Y006886D01*
X009187Y006963D01*
X009187Y007270D01*
X009110Y007346D02*
X008957Y007346D01*
X008880Y007270D01*
X008880Y006963D01*
X008727Y006886D02*
X008420Y006886D01*
X008727Y007193D01*
X008727Y007270D01*
X008650Y007346D01*
X008497Y007346D01*
X008420Y007270D01*
X008266Y007270D02*
X008266Y007116D01*
X008190Y007040D01*
X007960Y007040D01*
X008113Y007040D02*
X008266Y006886D01*
X007960Y006886D02*
X007960Y007346D01*
X008190Y007346D01*
X008266Y007270D01*
X008353Y004896D02*
X008353Y004436D01*
X008506Y004436D02*
X008199Y004436D01*
X008046Y004436D02*
X007739Y004436D01*
X008046Y004743D01*
X008046Y004820D01*
X007969Y004896D01*
X007816Y004896D01*
X007739Y004820D01*
X007585Y004820D02*
X007585Y004666D01*
X007509Y004590D01*
X007278Y004590D01*
X007278Y004436D02*
X007278Y004896D01*
X007509Y004896D01*
X007585Y004820D01*
X007432Y004590D02*
X007585Y004436D01*
X008199Y004743D02*
X008353Y004896D01*
X009683Y004121D02*
X009914Y004121D01*
X009990Y004045D01*
X009990Y003738D01*
X009914Y003661D01*
X009683Y003661D01*
X009683Y004121D01*
X010144Y004045D02*
X010221Y004121D01*
X010374Y004121D01*
X010451Y004045D01*
X010451Y003968D01*
X010144Y003661D01*
X010451Y003661D01*
X010604Y003661D02*
X010911Y003661D01*
X010758Y003661D02*
X010758Y004121D01*
X010604Y003968D01*
X011884Y004041D02*
X011884Y003888D01*
X011961Y003811D01*
X012268Y003811D01*
X012345Y003888D01*
X012345Y004041D01*
X012268Y004118D01*
X012345Y004271D02*
X012038Y004578D01*
X011961Y004578D01*
X011884Y004502D01*
X011884Y004348D01*
X011961Y004271D01*
X011961Y004118D02*
X011884Y004041D01*
X012345Y004271D02*
X012345Y004578D01*
X012345Y004732D02*
X012345Y005039D01*
X012345Y004885D02*
X011884Y004885D01*
X012038Y004732D01*
X012036Y001789D02*
X012343Y001482D01*
X012420Y001559D01*
X012420Y001712D01*
X012343Y001789D01*
X012036Y001789D01*
X011959Y001712D01*
X011959Y001559D01*
X012036Y001482D01*
X012343Y001482D01*
X012036Y001328D02*
X012343Y001021D01*
X012420Y001021D01*
X012420Y000868D02*
X012266Y000715D01*
X012266Y000791D02*
X012266Y000561D01*
X012420Y000561D02*
X011959Y000561D01*
X011959Y000791D01*
X012036Y000868D01*
X012189Y000868D01*
X012266Y000791D01*
X011959Y001021D02*
X011959Y001328D01*
X012036Y001328D01*
X011620Y001502D02*
X011543Y001426D01*
X011620Y001502D02*
X011620Y001656D01*
X011543Y001733D01*
X011389Y001733D01*
X011313Y001656D01*
X011313Y001579D01*
X011389Y001426D01*
X011159Y001426D01*
X011159Y001733D01*
X010545Y001789D02*
X010545Y001482D01*
X010238Y001789D01*
X010161Y001789D01*
X010084Y001712D01*
X010084Y001559D01*
X010161Y001482D01*
X010161Y001328D02*
X010468Y001021D01*
X010545Y001021D01*
X010545Y000868D02*
X010391Y000715D01*
X010391Y000791D02*
X010391Y000561D01*
X010545Y000561D02*
X010084Y000561D01*
X010084Y000791D01*
X010161Y000868D01*
X010314Y000868D01*
X010391Y000791D01*
X010084Y001021D02*
X010084Y001328D01*
X010161Y001328D01*
X009550Y001238D02*
X009550Y000931D01*
X009243Y001238D01*
X009166Y001238D01*
X009089Y001161D01*
X009089Y001007D01*
X009166Y000931D01*
X009166Y000777D02*
X009089Y000701D01*
X009089Y000547D01*
X009166Y000470D01*
X009473Y000470D01*
X009550Y000547D01*
X009550Y000701D01*
X009473Y000777D01*
X011159Y000735D02*
X011159Y000505D01*
X011620Y000505D01*
X011466Y000505D02*
X011466Y000735D01*
X011389Y000812D01*
X011236Y000812D01*
X011159Y000735D01*
X011159Y000965D02*
X011159Y001272D01*
X011236Y001272D01*
X011543Y000965D01*
X011620Y000965D01*
X011620Y000812D02*
X011466Y000658D01*
X013159Y000735D02*
X013159Y000505D01*
X013620Y000505D01*
X013466Y000505D02*
X013466Y000735D01*
X013389Y000812D01*
X013236Y000812D01*
X013159Y000735D01*
X013159Y000965D02*
X013159Y001272D01*
X013236Y001272D01*
X013543Y000965D01*
X013620Y000965D01*
X013620Y000812D02*
X013466Y000658D01*
X013959Y000561D02*
X013959Y000791D01*
X014036Y000868D01*
X014189Y000868D01*
X014266Y000791D01*
X014266Y000561D01*
X014266Y000715D02*
X014420Y000868D01*
X014420Y001021D02*
X014343Y001021D01*
X014036Y001328D01*
X013959Y001328D01*
X013959Y001021D01*
X013959Y000561D02*
X014420Y000561D01*
X015159Y000505D02*
X015159Y000735D01*
X015236Y000812D01*
X015389Y000812D01*
X015466Y000735D01*
X015466Y000505D01*
X015466Y000658D02*
X015620Y000812D01*
X015620Y000965D02*
X015543Y000965D01*
X015236Y001272D01*
X015159Y001272D01*
X015159Y000965D01*
X015159Y000505D02*
X015620Y000505D01*
X015389Y001426D02*
X015389Y001733D01*
X015159Y001656D02*
X015389Y001426D01*
X015620Y001656D02*
X015159Y001656D01*
X014420Y001635D02*
X013959Y001635D01*
X014113Y001482D01*
X014420Y001482D02*
X014420Y001789D01*
X013620Y001656D02*
X013620Y001502D01*
X013543Y001426D01*
X013389Y001579D02*
X013389Y001656D01*
X013466Y001733D01*
X013543Y001733D01*
X013620Y001656D01*
X013389Y001656D02*
X013313Y001733D01*
X013236Y001733D01*
X013159Y001656D01*
X013159Y001502D01*
X013236Y001426D01*
X006656Y000411D02*
X006349Y000411D01*
X006503Y000411D02*
X006503Y000871D01*
X006349Y000718D01*
X006196Y000795D02*
X006119Y000871D01*
X005966Y000871D01*
X005889Y000795D01*
X005889Y000488D01*
X005966Y000411D01*
X006119Y000411D01*
X006196Y000488D01*
X005735Y000411D02*
X005582Y000411D01*
X005659Y000411D02*
X005659Y000871D01*
X005735Y000871D02*
X005582Y000871D01*
D14*
X011290Y020092D03*
D15*
X012020Y018311D02*
X012245Y018311D01*
X012320Y018236D01*
X012320Y018086D01*
X012245Y018011D01*
X012020Y018011D01*
X012020Y017861D02*
X012020Y018311D01*
X012480Y018311D02*
X012630Y018311D01*
X012555Y018311D02*
X012555Y017861D01*
X012480Y017861D02*
X012630Y017861D01*
X012787Y017936D02*
X012862Y017861D01*
X013012Y017861D01*
X013087Y017936D01*
X013247Y017936D02*
X013322Y017861D01*
X013472Y017861D01*
X013547Y017936D01*
X013547Y018011D01*
X013472Y018086D01*
X013322Y018086D01*
X013247Y018161D01*
X013247Y018236D01*
X013322Y018311D01*
X013472Y018311D01*
X013547Y018236D01*
X013708Y018311D02*
X013933Y018311D01*
X014008Y018236D01*
X014008Y018086D01*
X013933Y018011D01*
X013708Y018011D01*
X013708Y017861D02*
X013708Y018311D01*
X013087Y018236D02*
X013012Y018311D01*
X012862Y018311D01*
X012787Y018236D01*
X012787Y017936D01*
X024824Y019021D02*
X024899Y018946D01*
X024974Y018946D01*
X025049Y019021D01*
X025049Y019396D01*
X024974Y019396D02*
X025124Y019396D01*
X025284Y019171D02*
X025509Y019171D01*
X025584Y019096D01*
X025584Y019021D01*
X025509Y018946D01*
X025359Y018946D01*
X025284Y019021D01*
X025284Y019171D01*
X025434Y019321D01*
X025584Y019396D01*
X032924Y019021D02*
X032999Y018946D01*
X033074Y018946D01*
X033149Y019021D01*
X033149Y019396D01*
X033074Y019396D02*
X033224Y019396D01*
X033384Y019396D02*
X033384Y019171D01*
X033534Y019246D01*
X033609Y019246D01*
X033684Y019171D01*
X033684Y019021D01*
X033609Y018946D01*
X033459Y018946D01*
X033384Y019021D01*
X033384Y019396D02*
X033684Y019396D01*
X035565Y017326D02*
X035715Y017326D01*
X035640Y017326D02*
X035640Y016876D01*
X035565Y016876D02*
X035715Y016876D01*
X035871Y016876D02*
X035871Y017326D01*
X036097Y017326D01*
X036172Y017251D01*
X036172Y017101D01*
X036097Y017026D01*
X035871Y017026D01*
X036022Y017026D02*
X036172Y016876D01*
X036332Y016876D02*
X036632Y016876D01*
X036482Y016876D02*
X036482Y017326D01*
X036332Y017176D01*
X033446Y012927D02*
X033446Y012627D01*
X033146Y012927D01*
X033071Y012927D01*
X032996Y012852D01*
X032996Y012702D01*
X033071Y012627D01*
X033071Y012467D02*
X033221Y012467D01*
X033296Y012392D01*
X033296Y012167D01*
X033296Y012317D02*
X033446Y012467D01*
X033446Y012167D02*
X032996Y012167D01*
X032996Y012392D01*
X033071Y012467D01*
X032996Y012010D02*
X032996Y011860D01*
X032996Y011935D02*
X033446Y011935D01*
X033446Y011860D02*
X033446Y012010D01*
X027228Y005366D02*
X027303Y005291D01*
X027303Y005141D01*
X027228Y005066D01*
X027003Y005066D01*
X027003Y004916D02*
X027003Y005366D01*
X027228Y005366D01*
X026842Y005291D02*
X026767Y005366D01*
X026617Y005366D01*
X026542Y005291D01*
X026542Y005216D01*
X026617Y005141D01*
X026767Y005141D01*
X026842Y005066D01*
X026842Y004991D01*
X026767Y004916D01*
X026617Y004916D01*
X026542Y004991D01*
X026382Y004991D02*
X026307Y004916D01*
X026157Y004916D01*
X026082Y004991D01*
X026082Y005291D01*
X026157Y005366D01*
X026307Y005366D01*
X026382Y005291D01*
X025925Y005366D02*
X025775Y005366D01*
X025850Y005366D02*
X025850Y004916D01*
X025775Y004916D02*
X025925Y004916D01*
X025615Y004916D02*
X025615Y005366D01*
X025465Y005216D01*
X025315Y005366D01*
X025315Y004916D01*
X023303Y005141D02*
X023228Y005066D01*
X023003Y005066D01*
X023003Y004916D02*
X023003Y005366D01*
X023228Y005366D01*
X023303Y005291D01*
X023303Y005141D01*
X022842Y005066D02*
X022842Y004991D01*
X022767Y004916D01*
X022617Y004916D01*
X022542Y004991D01*
X022382Y004991D02*
X022307Y004916D01*
X022157Y004916D01*
X022082Y004991D01*
X022082Y005291D01*
X022157Y005366D01*
X022307Y005366D01*
X022382Y005291D01*
X022542Y005291D02*
X022617Y005366D01*
X022767Y005366D01*
X022842Y005291D01*
X022767Y005141D02*
X022842Y005066D01*
X022767Y005141D02*
X022617Y005141D01*
X022542Y005216D01*
X022542Y005291D01*
X021925Y005366D02*
X021775Y005366D01*
X021850Y005366D02*
X021850Y004916D01*
X021775Y004916D02*
X021925Y004916D01*
X021615Y005066D02*
X021615Y005366D01*
X021315Y005366D02*
X021315Y005066D01*
X021465Y004916D01*
X021615Y005066D01*
X021510Y002336D02*
X021285Y002336D01*
X021285Y001886D01*
X021285Y002036D02*
X021510Y002036D01*
X021585Y002111D01*
X021585Y002261D01*
X021510Y002336D01*
X021745Y002261D02*
X021745Y001961D01*
X021820Y001886D01*
X021970Y001886D01*
X022045Y001961D01*
X022045Y002261D01*
X021970Y002336D01*
X021820Y002336D01*
X021745Y002261D01*
X022205Y002336D02*
X022205Y001886D01*
X022355Y002036D01*
X022506Y001886D01*
X022506Y002336D01*
X022666Y002336D02*
X022666Y001886D01*
X022966Y001886D01*
X023126Y001886D02*
X023126Y002336D01*
X023351Y002336D01*
X023426Y002261D01*
X023426Y002111D01*
X023351Y002036D01*
X023126Y002036D01*
X023276Y002036D02*
X023426Y001886D01*
X022966Y002336D02*
X022666Y002336D01*
X022666Y002111D02*
X022816Y002111D01*
X028285Y001961D02*
X028360Y001886D01*
X028435Y001886D01*
X028510Y001961D01*
X028510Y002336D01*
X028435Y002336D02*
X028585Y002336D01*
X028745Y002111D02*
X029045Y002111D01*
X028970Y001886D02*
X028970Y002336D01*
X028745Y002111D01*
D16*
X035290Y015891D02*
X035290Y017391D01*
D17*
X035247Y017445D01*
X035201Y017497D01*
X035152Y017546D01*
X035100Y017593D01*
X035046Y017636D01*
X034990Y017677D01*
X034931Y017714D01*
X034871Y017748D01*
X034808Y017778D01*
X034745Y017805D01*
X034679Y017829D01*
X034613Y017849D01*
X034545Y017865D01*
X034477Y017877D01*
X034408Y017885D01*
X034339Y017890D01*
X034269Y017891D01*
X034200Y017888D01*
X034131Y017881D01*
X034063Y017870D01*
X033995Y017856D01*
X033928Y017837D01*
X033862Y017815D01*
X033797Y017790D01*
X033734Y017761D01*
X033673Y017728D01*
X033614Y017692D01*
X033557Y017653D01*
X033501Y017611D01*
X033449Y017566D01*
X033399Y017518D01*
X033352Y017467D01*
X033307Y017413D01*
X033266Y017358D01*
X033228Y017300D01*
X033193Y017240D01*
X033161Y017178D01*
X033133Y017115D01*
X033109Y017050D01*
X033088Y016984D01*
X033071Y016916D01*
X033057Y016848D01*
X033048Y016779D01*
X033042Y016710D01*
X033040Y016641D01*
X033042Y016572D01*
X033048Y016503D01*
X033057Y016434D01*
X033071Y016366D01*
X033088Y016298D01*
X033109Y016232D01*
X033133Y016167D01*
X033161Y016104D01*
X033193Y016042D01*
X033228Y015982D01*
X033266Y015924D01*
X033307Y015869D01*
X033352Y015815D01*
X033399Y015764D01*
X033449Y015716D01*
X033501Y015671D01*
X033557Y015629D01*
X033614Y015590D01*
X033673Y015554D01*
X033734Y015521D01*
X033797Y015492D01*
X033862Y015467D01*
X033928Y015445D01*
X033995Y015426D01*
X034063Y015412D01*
X034131Y015401D01*
X034200Y015394D01*
X034269Y015391D01*
X034339Y015392D01*
X034408Y015397D01*
X034477Y015405D01*
X034545Y015417D01*
X034613Y015433D01*
X034679Y015453D01*
X034745Y015477D01*
X034808Y015504D01*
X034871Y015534D01*
X034931Y015568D01*
X034990Y015605D01*
X035046Y015646D01*
X035100Y015689D01*
X035152Y015736D01*
X035201Y015785D01*
X035247Y015837D01*
X035290Y015891D01*
D18*
X021715Y014411D02*
X021424Y014411D01*
X021424Y014557D01*
X021473Y014605D01*
X021569Y014605D01*
X021618Y014557D01*
X021618Y014411D01*
X021715Y014312D02*
X021715Y014215D01*
X021715Y014263D02*
X021424Y014263D01*
X021424Y014215D02*
X021424Y014312D01*
X021424Y014114D02*
X021715Y014114D01*
X021569Y014114D02*
X021569Y013920D01*
X021473Y013819D02*
X021424Y013771D01*
X021424Y013674D01*
X021473Y013626D01*
X021666Y013626D01*
X021715Y013674D01*
X021715Y013771D01*
X021666Y013819D01*
X021715Y013920D02*
X021424Y013920D01*
X021473Y013525D02*
X021569Y013525D01*
X021618Y013476D01*
X021618Y013331D01*
X021715Y013331D02*
X021424Y013331D01*
X021424Y013476D01*
X021473Y013525D01*
X026520Y007046D02*
X026616Y006950D01*
X026713Y007046D01*
X026713Y006756D01*
X026814Y006804D02*
X026863Y006756D01*
X026959Y006756D01*
X027008Y006804D01*
X027109Y006756D02*
X027109Y007046D01*
X027008Y006998D02*
X026959Y007046D01*
X026863Y007046D01*
X026814Y006998D01*
X026814Y006804D01*
X026520Y006756D02*
X026520Y007046D01*
X027109Y006901D02*
X027302Y006901D01*
X027302Y007046D02*
X027302Y006756D01*
X027404Y006756D02*
X027500Y006756D01*
X027452Y006756D02*
X027452Y007046D01*
X027404Y007046D02*
X027500Y007046D01*
X027600Y007046D02*
X027745Y007046D01*
X027793Y006998D01*
X027793Y006901D01*
X027745Y006853D01*
X027600Y006853D01*
X027600Y006756D02*
X027600Y007046D01*
X014253Y005458D02*
X014253Y005361D01*
X014205Y005313D01*
X014060Y005313D01*
X014060Y005216D02*
X014060Y005506D01*
X014205Y005506D01*
X014253Y005458D01*
X013960Y005506D02*
X013864Y005506D01*
X013912Y005506D02*
X013912Y005216D01*
X013864Y005216D02*
X013960Y005216D01*
X013762Y005216D02*
X013762Y005506D01*
X013762Y005361D02*
X013569Y005361D01*
X013468Y005264D02*
X013419Y005216D01*
X013323Y005216D01*
X013274Y005264D01*
X013274Y005458D01*
X013323Y005506D01*
X013419Y005506D01*
X013468Y005458D01*
X013569Y005506D02*
X013569Y005216D01*
X013173Y005313D02*
X013173Y005506D01*
X013173Y005313D02*
X013076Y005216D01*
X012980Y005313D01*
X012980Y005506D01*
M02*
