%
M48
M72
T01C0.0120
T02C0.0320
T03C0.0354
T04C0.0400
T05C0.0472
T06C0.0866
T07C0.1102
T08C0.1260
%
T01
X8170Y3441
X8610Y3001
X10790Y2981
X11770Y3261
X12790Y3001
X13430Y3461
X13750Y4181
X12790Y4981
X11750Y4421
X10250Y5481
X10910Y6561
X12350Y6741
X12750Y6481
X13090Y6701
X12430Y7141
X12130Y7501
X12950Y8181
X12570Y8461
X12290Y8741
X11790Y9221
X11590Y9581
X11590Y10141
X12230Y10141
X11770Y10801
X12810Y11741
X12490Y11981
X13930Y13141
X13290Y13301
X13770Y13881
X14750Y13781
X15390Y13461
X15610Y13801
X16010Y13781
X16330Y14101
X15990Y14421
X17070Y14421
X17050Y13781
X16670Y13141
X16630Y12741
X16630Y12301
X15990Y12421
X17790Y12141
X18130Y12501
X18830Y12641
X18170Y12941
X19450Y12481
X20450Y12741
X21730Y12301
X21890Y12681
X22810Y11781
X22050Y11301
X22010Y10301
X22650Y9161
X22690Y8761
X24110Y8461
X24410Y8201
X25630Y8641
X26570Y8981
X25630Y9321
X25630Y10301
X25030Y10821
X24390Y10621
X23950Y10301
X23750Y10761
X24390Y11081
X24550Y11721
X25190Y11741
X26630Y12761
X27410Y11801
X27570Y11361
X28210Y11421
X28650Y11901
X29150Y11901
X28210Y12161
X28650Y12601
X30230Y13421
X30670Y12981
X31710Y12421
X32350Y11861
X31770Y10281
X29810Y9301
X29430Y8661
X29010Y8541
X30290Y8141
X29770Y6801
X30770Y6541
X30930Y5901
X28530Y5741
X28530Y5261
X28530Y4841
X27830Y5721
X27030Y5261
X27030Y4821
X25730Y4961
X24930Y4981
X24930Y4161
X24970Y2941
X23910Y2181
X23670Y1861
X24710Y1861
X26410Y2501
X27190Y2621
X31370Y4061
X33510Y3701
X27890Y6221
X27570Y6601
X27070Y6921
X26390Y6721
X26410Y6321
X27170Y8041
X26690Y10301
X24710Y13041
X25470Y13381
X24710Y13941
X23910Y13961
X23910Y13521
X25590Y14581
X26530Y13961
X26870Y14461
X27570Y14361
X28370Y14301
X27270Y15461
X28370Y16101
X30030Y14961
X25450Y15701
X24790Y15701
X24450Y15481
X24390Y15081
X23690Y15161
X22890Y14841
X22490Y14801
X21730Y15241
X21290Y15681
X22010Y16401
X23050Y16841
X23330Y17121
X22370Y17341
X22370Y17981
X22690Y18321
X22930Y18661
X23330Y18661
X22930Y17981
X24690Y17401
X24870Y16781
X25450Y16341
X24290Y16201
X23690Y16321
X23050Y15801
X21890Y14181
X19950Y14421
X19130Y14801
X18790Y14481
X17190Y15281
X17610Y16001
X16470Y16641
X17270Y17301
X19210Y17981
X19770Y16741
X18890Y16021
X19770Y15861
X15010Y14921
X14570Y14481
X12570Y14641
X9230Y15781
X11130Y17121
X12970Y17841
X12970Y18281
X13610Y18481
X15130Y17861
X14350Y19841
X10910Y19521
X19030Y19421
X22290Y19301
X23750Y20601
X25510Y19461
X25850Y20241
X27650Y19281
X28210Y18721
X28370Y18341
X28970Y19481
X30870Y18161
X18190Y11401
X17790Y11501
X19330Y10801
X19310Y9881
X20270Y9741
X18070Y9461
X16870Y9521
X15670Y8101
X16270Y7661
X15990Y6941
X15690Y6381
X15410Y6101
X15010Y6141
X15050Y5741
X14770Y5461
X14330Y5421
X15610Y5181
X15970Y5541
X16130Y5941
X17230Y5441
X16210Y4481
X15770Y4481
X16490Y4201
X16810Y3881
X15230Y3461
X14790Y2701
X13650Y1861
X12330Y1781
X11910Y1861
X8850Y1441
X14450Y6941
X14190Y7241
X14130Y7641
X13810Y8401
X13770Y8801
X14090Y10021
X14730Y10341
X14730Y10741
X13450Y10081
X11070Y8721
X10910Y7501
X9030Y9041
X8590Y9481
X17450Y7121
X18810Y6801
X21270Y7781
X21930Y7561
X22390Y7141
X22970Y7141
X22130Y6301
X22130Y5801
X22130Y5301
X22110Y4901
X20830Y4521
X20190Y4801
X19790Y2501
X18430Y1141
X22390Y2181
X33150Y7801
T02
X33790Y16641
X34790Y16641
T03
X32443Y8480
X31459Y8480
X32443Y7653
X32443Y6629
X32443Y5803
X31459Y5803
T04
X27790Y4141
X26790Y4141
X25790Y4141
X25790Y3141
X26790Y3141
X27790Y3141
X28790Y1141
X29790Y1141
X30790Y1141
X31790Y1141
X32790Y1141
X33790Y1141
X26790Y1141
X25790Y1141
X24790Y1141
X23790Y1141
X22790Y1141
X21790Y1141
X21790Y3141
X22790Y3141
X23790Y3141
X23790Y4141
X22790Y4141
X21790Y4141
X34290Y10641
X34290Y11641
X34290Y12641
X33790Y20141
X32790Y20141
X31790Y20141
X30790Y20141
X29790Y20141
X28790Y20141
X27790Y20141
X26790Y20141
X25190Y20141
X24190Y20141
X23190Y20141
X22190Y20141
X21190Y20141
X20190Y20141
X19190Y20141
X18190Y20141
X15290Y17141
X14290Y17141
X13290Y17141
X13290Y16141
X14290Y16141
X15290Y16141
T05
X7340Y9311
X7340Y3811
T06
X5460Y5391
X5460Y10891
T07
X33939Y7141
T08
X5440Y3041
X5440Y13241
X9790Y20141
X34790Y14141
X34790Y3141
M30
