G75*
G70*
%OFA0B0*%
%FSLAX24Y24*%
%IPPOS*%
%LPD*%
%AMOC8*
5,1,8,0,0,1.08239X$1,22.5*
%
%ADD10C,0.1320*%
%ADD11R,0.0493X0.0454*%
%ADD12R,0.0375X0.0375*%
%ADD13C,0.0620*%
%ADD14R,0.0336X0.0414*%
%ADD15R,0.0611X0.0532*%
%ADD16R,0.0454X0.0493*%
%ADD17R,0.0611X0.0454*%
%ADD18OC8,0.0620*%
%ADD19R,0.0532X0.0611*%
%ADD20OC8,0.0520*%
%ADD21R,0.1273X0.1273*%
%ADD22R,0.0721X0.0721*%
%ADD23R,0.0591X0.0217*%
%ADD24R,0.0690X0.0887*%
%ADD25R,0.0808X0.0808*%
%ADD26R,0.0808X0.0769*%
%ADD27C,0.0620*%
%ADD28R,0.0556X0.0556*%
%ADD29C,0.1562*%
%ADD30C,0.0926*%
%ADD31R,0.0620X0.0413*%
%ADD32C,0.0560*%
%ADD33C,0.0280*%
%ADD34R,0.0560X0.0280*%
%ADD35R,0.0280X0.0560*%
%ADD36C,0.0300*%
D10*
X005440Y003041D03*
X005440Y013241D03*
X009790Y020141D03*
X034790Y014141D03*
X034790Y003141D03*
D11*
X017624Y006641D03*
X016955Y006641D03*
X016955Y010141D03*
X017624Y010141D03*
X008624Y011141D03*
X007955Y011141D03*
X010455Y016641D03*
X011124Y016641D03*
X010624Y018141D03*
X009955Y018141D03*
X012290Y019806D03*
X012290Y020476D03*
X014790Y018976D03*
X014790Y018306D03*
X023790Y018306D03*
X023790Y018976D03*
X023790Y017476D03*
X023790Y016806D03*
X033290Y014976D03*
X033290Y014306D03*
X015290Y002976D03*
X015290Y002306D03*
X014290Y002306D03*
X014290Y002976D03*
X013290Y002976D03*
X012290Y002976D03*
X012290Y002306D03*
X013290Y002306D03*
X011290Y002306D03*
X011290Y002976D03*
X010290Y002976D03*
X010290Y002306D03*
D12*
X011290Y019846D03*
X011290Y020436D03*
D13*
X018190Y020141D03*
X019190Y020141D03*
X020190Y020141D03*
X021190Y020141D03*
X022190Y020141D03*
X023190Y020141D03*
X024190Y020141D03*
X025190Y020141D03*
X026790Y020141D03*
X027790Y020141D03*
X028790Y020141D03*
X029790Y020141D03*
X030790Y020141D03*
X031790Y020141D03*
X032790Y020141D03*
X033790Y020141D03*
X033790Y001141D03*
X032790Y001141D03*
X031790Y001141D03*
X030790Y001141D03*
X029790Y001141D03*
X028790Y001141D03*
X026790Y001141D03*
X025790Y001141D03*
X024790Y001141D03*
X023790Y001141D03*
X022790Y001141D03*
X021790Y001141D03*
D14*
X007546Y019641D03*
X007034Y019641D03*
D15*
X016857Y008956D03*
X017723Y008956D03*
X017723Y008326D03*
X016857Y008326D03*
X030357Y010326D03*
X031223Y010326D03*
X031223Y010956D03*
X030357Y010956D03*
D16*
X032290Y010976D03*
X032290Y010306D03*
X030290Y009476D03*
X030290Y008806D03*
X030290Y007476D03*
X030290Y006806D03*
X026624Y015641D03*
X025955Y015641D03*
X019790Y017306D03*
X019790Y017976D03*
X016790Y017976D03*
X016790Y017306D03*
X013290Y014476D03*
X013290Y013806D03*
X012290Y011476D03*
X012290Y010806D03*
X009124Y010141D03*
X008455Y010141D03*
X008624Y006391D03*
X007955Y006391D03*
X007955Y005391D03*
X008624Y005391D03*
X012790Y004476D03*
X012790Y003806D03*
X009290Y002476D03*
X009290Y001806D03*
X007624Y015641D03*
X006955Y015641D03*
X006955Y017641D03*
X007624Y017641D03*
X007624Y018641D03*
X006955Y018641D03*
D17*
X009223Y017015D03*
X008357Y016641D03*
X009223Y016267D03*
X008723Y014890D03*
X007857Y014516D03*
X008723Y014142D03*
X008723Y008515D03*
X007857Y008141D03*
X008723Y007767D03*
X009223Y004390D03*
X008357Y004016D03*
X009223Y003642D03*
D18*
X021790Y004141D03*
X022790Y004141D03*
X023790Y004141D03*
X023790Y003141D03*
X022790Y003141D03*
X021790Y003141D03*
X025790Y003141D03*
X026790Y003141D03*
X027790Y003141D03*
X027790Y004141D03*
X026790Y004141D03*
X025790Y004141D03*
X015290Y016141D03*
X014290Y016141D03*
X013290Y016141D03*
X013290Y017141D03*
X014290Y017141D03*
X015290Y017141D03*
D19*
X017975Y017208D03*
X018605Y017208D03*
X018605Y018074D03*
X017975Y018074D03*
D20*
X033790Y016641D03*
X034790Y016641D03*
D21*
X005460Y010891D03*
X005460Y005391D03*
D22*
X007340Y003811D03*
X007340Y009311D03*
D23*
X005916Y017129D03*
X005916Y017385D03*
X005916Y017641D03*
X005916Y017897D03*
X005916Y018153D03*
D24*
X005864Y018862D03*
X005864Y016421D03*
D25*
X004860Y017169D03*
X004860Y018114D03*
D26*
X004860Y019216D03*
X004860Y016066D03*
D27*
X034010Y012641D02*
X034570Y012641D01*
X034570Y011641D02*
X034010Y011641D01*
X034010Y010641D02*
X034570Y010641D01*
D28*
X032443Y008480D03*
X031459Y008480D03*
X032443Y007653D03*
X032443Y006629D03*
X032443Y005803D03*
X031459Y005803D03*
D29*
X033939Y007141D03*
D30*
X007215Y001641D02*
X006625Y001641D01*
D31*
X008072Y001641D03*
X008072Y001051D03*
X008072Y002232D03*
D32*
X004790Y001141D03*
X004790Y014641D03*
X034790Y018891D03*
D33*
X004366Y001141D02*
X004368Y001182D01*
X004374Y001222D01*
X004384Y001262D01*
X004397Y001301D01*
X004415Y001338D01*
X004435Y001373D01*
X004459Y001407D01*
X004487Y001437D01*
X004517Y001465D01*
X004549Y001490D01*
X004584Y001512D01*
X004621Y001530D01*
X004659Y001544D01*
X004699Y001555D01*
X004739Y001562D01*
X004780Y001565D01*
X004821Y001564D01*
X004861Y001559D01*
X004901Y001550D01*
X004940Y001537D01*
X004978Y001521D01*
X005014Y001501D01*
X005047Y001478D01*
X005079Y001451D01*
X005107Y001422D01*
X005133Y001390D01*
X005155Y001356D01*
X005175Y001320D01*
X005190Y001282D01*
X005202Y001242D01*
X005210Y001202D01*
X005214Y001161D01*
X005214Y001121D01*
X005210Y001080D01*
X005202Y001040D01*
X005190Y001000D01*
X005175Y000962D01*
X005155Y000926D01*
X005133Y000892D01*
X005107Y000860D01*
X005079Y000831D01*
X005047Y000804D01*
X005014Y000781D01*
X004978Y000761D01*
X004940Y000745D01*
X004901Y000732D01*
X004861Y000723D01*
X004821Y000718D01*
X004780Y000717D01*
X004739Y000720D01*
X004699Y000727D01*
X004659Y000738D01*
X004621Y000752D01*
X004584Y000770D01*
X004549Y000792D01*
X004517Y000817D01*
X004487Y000845D01*
X004459Y000875D01*
X004435Y000909D01*
X004415Y000944D01*
X004397Y000981D01*
X004384Y001020D01*
X004374Y001060D01*
X004368Y001100D01*
X004366Y001141D01*
X004366Y014641D02*
X004368Y014682D01*
X004374Y014722D01*
X004384Y014762D01*
X004397Y014801D01*
X004415Y014838D01*
X004435Y014873D01*
X004459Y014907D01*
X004487Y014937D01*
X004517Y014965D01*
X004549Y014990D01*
X004584Y015012D01*
X004621Y015030D01*
X004659Y015044D01*
X004699Y015055D01*
X004739Y015062D01*
X004780Y015065D01*
X004821Y015064D01*
X004861Y015059D01*
X004901Y015050D01*
X004940Y015037D01*
X004978Y015021D01*
X005014Y015001D01*
X005047Y014978D01*
X005079Y014951D01*
X005107Y014922D01*
X005133Y014890D01*
X005155Y014856D01*
X005175Y014820D01*
X005190Y014782D01*
X005202Y014742D01*
X005210Y014702D01*
X005214Y014661D01*
X005214Y014621D01*
X005210Y014580D01*
X005202Y014540D01*
X005190Y014500D01*
X005175Y014462D01*
X005155Y014426D01*
X005133Y014392D01*
X005107Y014360D01*
X005079Y014331D01*
X005047Y014304D01*
X005014Y014281D01*
X004978Y014261D01*
X004940Y014245D01*
X004901Y014232D01*
X004861Y014223D01*
X004821Y014218D01*
X004780Y014217D01*
X004739Y014220D01*
X004699Y014227D01*
X004659Y014238D01*
X004621Y014252D01*
X004584Y014270D01*
X004549Y014292D01*
X004517Y014317D01*
X004487Y014345D01*
X004459Y014375D01*
X004435Y014409D01*
X004415Y014444D01*
X004397Y014481D01*
X004384Y014520D01*
X004374Y014560D01*
X004368Y014600D01*
X004366Y014641D01*
X034366Y018891D02*
X034368Y018932D01*
X034374Y018972D01*
X034384Y019012D01*
X034397Y019051D01*
X034415Y019088D01*
X034435Y019123D01*
X034459Y019157D01*
X034487Y019187D01*
X034517Y019215D01*
X034549Y019240D01*
X034584Y019262D01*
X034621Y019280D01*
X034659Y019294D01*
X034699Y019305D01*
X034739Y019312D01*
X034780Y019315D01*
X034821Y019314D01*
X034861Y019309D01*
X034901Y019300D01*
X034940Y019287D01*
X034978Y019271D01*
X035014Y019251D01*
X035047Y019228D01*
X035079Y019201D01*
X035107Y019172D01*
X035133Y019140D01*
X035155Y019106D01*
X035175Y019070D01*
X035190Y019032D01*
X035202Y018992D01*
X035210Y018952D01*
X035214Y018911D01*
X035214Y018871D01*
X035210Y018830D01*
X035202Y018790D01*
X035190Y018750D01*
X035175Y018712D01*
X035155Y018676D01*
X035133Y018642D01*
X035107Y018610D01*
X035079Y018581D01*
X035047Y018554D01*
X035014Y018531D01*
X034978Y018511D01*
X034940Y018495D01*
X034901Y018482D01*
X034861Y018473D01*
X034821Y018468D01*
X034780Y018467D01*
X034739Y018470D01*
X034699Y018477D01*
X034659Y018488D01*
X034621Y018502D01*
X034584Y018520D01*
X034549Y018542D01*
X034517Y018567D01*
X034487Y018595D01*
X034459Y018625D01*
X034435Y018659D01*
X034415Y018694D01*
X034397Y018731D01*
X034384Y018770D01*
X034374Y018810D01*
X034368Y018850D01*
X034366Y018891D01*
D34*
X020980Y014743D03*
X020980Y014429D03*
X020980Y014114D03*
X020980Y013799D03*
X020980Y013484D03*
X020980Y013169D03*
X020980Y012854D03*
X020980Y012539D03*
X017600Y012539D03*
X017600Y012854D03*
X017600Y013169D03*
X017600Y013484D03*
X017600Y013799D03*
X017600Y014114D03*
X017600Y014429D03*
X017600Y014743D03*
X025100Y010243D03*
X025100Y009929D03*
X025100Y009614D03*
X025100Y009299D03*
X025100Y008984D03*
X025100Y008669D03*
X025100Y008354D03*
X025100Y008039D03*
X028480Y008039D03*
X028480Y008354D03*
X028480Y008669D03*
X028480Y008984D03*
X028480Y009299D03*
X028480Y009614D03*
X028480Y009929D03*
X028480Y010243D03*
X014980Y008743D03*
X014980Y008429D03*
X014980Y008114D03*
X014980Y007799D03*
X014980Y007484D03*
X014980Y007169D03*
X014980Y006854D03*
X014980Y006539D03*
X011600Y006539D03*
X011600Y006854D03*
X011600Y007169D03*
X011600Y007484D03*
X011600Y007799D03*
X011600Y008114D03*
X011600Y008429D03*
X011600Y008743D03*
D35*
X012187Y009331D03*
X012502Y009331D03*
X012817Y009331D03*
X013132Y009331D03*
X013447Y009331D03*
X013762Y009331D03*
X014077Y009331D03*
X014392Y009331D03*
X018187Y011951D03*
X018502Y011951D03*
X018817Y011951D03*
X019132Y011951D03*
X019447Y011951D03*
X019762Y011951D03*
X020077Y011951D03*
X020392Y011951D03*
X025687Y010831D03*
X026002Y010831D03*
X026317Y010831D03*
X026632Y010831D03*
X026947Y010831D03*
X027262Y010831D03*
X027577Y010831D03*
X027892Y010831D03*
X027892Y007451D03*
X027577Y007451D03*
X027262Y007451D03*
X026947Y007451D03*
X026632Y007451D03*
X026317Y007451D03*
X026002Y007451D03*
X025687Y007451D03*
X014392Y005951D03*
X014077Y005951D03*
X013762Y005951D03*
X013447Y005951D03*
X013132Y005951D03*
X012817Y005951D03*
X012502Y005951D03*
X012187Y005951D03*
X018187Y015331D03*
X018502Y015331D03*
X018817Y015331D03*
X019132Y015331D03*
X019447Y015331D03*
X019762Y015331D03*
X020077Y015331D03*
X020392Y015331D03*
D36*
X019770Y015861D03*
X018890Y016021D03*
X019770Y016741D03*
X021290Y015681D03*
X021730Y015241D03*
X022490Y014801D03*
X022890Y014841D03*
X023690Y015161D03*
X024390Y015081D03*
X024450Y015481D03*
X024790Y015701D03*
X025450Y015701D03*
X025450Y016341D03*
X024870Y016781D03*
X024290Y016201D03*
X023690Y016321D03*
X023050Y015801D03*
X022010Y016401D03*
X023050Y016841D03*
X023330Y017121D03*
X022370Y017341D03*
X022370Y017981D03*
X022690Y018321D03*
X022930Y018661D03*
X023330Y018661D03*
X022930Y017981D03*
X024690Y017401D03*
X022290Y019301D03*
X023750Y020601D03*
X025510Y019461D03*
X025850Y020241D03*
X027650Y019281D03*
X028210Y018721D03*
X028370Y018341D03*
X028970Y019481D03*
X030870Y018161D03*
X028370Y016101D03*
X027270Y015461D03*
X025590Y014581D03*
X024710Y013941D03*
X023910Y013961D03*
X023910Y013521D03*
X024710Y013041D03*
X025470Y013381D03*
X026530Y013961D03*
X026870Y014461D03*
X027570Y014361D03*
X028370Y014301D03*
X030030Y014961D03*
X030230Y013421D03*
X030670Y012981D03*
X031710Y012421D03*
X032350Y011861D03*
X031770Y010281D03*
X029810Y009301D03*
X029430Y008661D03*
X029010Y008541D03*
X030290Y008141D03*
X029770Y006801D03*
X030770Y006541D03*
X030930Y005901D03*
X028530Y005741D03*
X028530Y005261D03*
X028530Y004841D03*
X027830Y005721D03*
X027030Y005261D03*
X027030Y004821D03*
X025730Y004961D03*
X024930Y004981D03*
X024930Y004161D03*
X024970Y002941D03*
X023910Y002181D03*
X023670Y001861D03*
X024710Y001861D03*
X026410Y002501D03*
X027190Y002621D03*
X031370Y004061D03*
X033510Y003701D03*
X027890Y006221D03*
X027570Y006601D03*
X027070Y006921D03*
X026390Y006721D03*
X026410Y006321D03*
X027170Y008041D03*
X025630Y008641D03*
X026570Y008981D03*
X025630Y009321D03*
X024110Y008461D03*
X024410Y008201D03*
X022970Y007141D03*
X022390Y007141D03*
X021930Y007561D03*
X021270Y007781D03*
X022690Y008761D03*
X022650Y009161D03*
X022010Y010301D03*
X022050Y011301D03*
X022810Y011781D03*
X021730Y012301D03*
X021890Y012681D03*
X020450Y012741D03*
X019450Y012481D03*
X018830Y012641D03*
X018130Y012501D03*
X017790Y012141D03*
X017790Y011501D03*
X018190Y011401D03*
X019330Y010801D03*
X019310Y009881D03*
X020270Y009741D03*
X018070Y009461D03*
X016870Y009521D03*
X015670Y008101D03*
X016270Y007661D03*
X015990Y006941D03*
X015690Y006381D03*
X015410Y006101D03*
X015010Y006141D03*
X015050Y005741D03*
X014770Y005461D03*
X014330Y005421D03*
X015610Y005181D03*
X015970Y005541D03*
X016130Y005941D03*
X017230Y005441D03*
X016210Y004481D03*
X015770Y004481D03*
X016490Y004201D03*
X016810Y003881D03*
X015230Y003461D03*
X014790Y002701D03*
X013650Y001861D03*
X012330Y001781D03*
X011910Y001861D03*
X012790Y003001D03*
X013430Y003461D03*
X013750Y004181D03*
X012790Y004981D03*
X011750Y004421D03*
X011770Y003261D03*
X010790Y002981D03*
X008610Y003001D03*
X008170Y003441D03*
X010250Y005481D03*
X010910Y006561D03*
X012350Y006741D03*
X012750Y006481D03*
X013090Y006701D03*
X012430Y007141D03*
X012130Y007501D03*
X012950Y008181D03*
X012570Y008461D03*
X012290Y008741D03*
X011790Y009221D03*
X011590Y009581D03*
X011590Y010141D03*
X012230Y010141D03*
X011770Y010801D03*
X012810Y011741D03*
X012490Y011981D03*
X013930Y013141D03*
X013290Y013301D03*
X013770Y013881D03*
X014750Y013781D03*
X015390Y013461D03*
X015610Y013801D03*
X016010Y013781D03*
X016330Y014101D03*
X015990Y014421D03*
X017070Y014421D03*
X017050Y013781D03*
X016670Y013141D03*
X016630Y012741D03*
X016630Y012301D03*
X015990Y012421D03*
X018170Y012941D03*
X019950Y014421D03*
X019130Y014801D03*
X018790Y014481D03*
X017190Y015281D03*
X017610Y016001D03*
X016470Y016641D03*
X017270Y017301D03*
X019210Y017981D03*
X019030Y019421D03*
X015130Y017861D03*
X013610Y018481D03*
X012970Y018281D03*
X012970Y017841D03*
X011130Y017121D03*
X009230Y015781D03*
X012570Y014641D03*
X014570Y014481D03*
X015010Y014921D03*
X021890Y014181D03*
X024550Y011721D03*
X025190Y011741D03*
X024390Y011081D03*
X025030Y010821D03*
X024390Y010621D03*
X023950Y010301D03*
X023750Y010761D03*
X025630Y010301D03*
X026690Y010301D03*
X027570Y011361D03*
X027410Y011801D03*
X028210Y012161D03*
X028650Y011901D03*
X029150Y011901D03*
X028210Y011421D03*
X028650Y012601D03*
X026630Y012761D03*
X033150Y007801D03*
X022390Y002181D03*
X019790Y002501D03*
X018430Y001141D03*
X020830Y004521D03*
X020190Y004801D03*
X022110Y004901D03*
X022130Y005301D03*
X022130Y005801D03*
X022130Y006301D03*
X018810Y006801D03*
X017450Y007121D03*
X014450Y006941D03*
X014190Y007241D03*
X014130Y007641D03*
X013810Y008401D03*
X013770Y008801D03*
X014090Y010021D03*
X014730Y010341D03*
X014730Y010741D03*
X013450Y010081D03*
X011070Y008721D03*
X010910Y007501D03*
X009030Y009041D03*
X008590Y009481D03*
X008850Y001441D03*
X010910Y019521D03*
X014350Y019841D03*
M02*
